<?xml version='1.0' encoding='utf-8'?>
<svg xmlns="http://www.w3.org/2000/svg" version="1.1" display="block" viewBox="0 0 4096 4096" preserveAspectRatio="xMidYMid meet">
  <defs>
    <linearGradient id="GradientLeft" gradientUnits="userSpaceOnUse" x1="1119.25" y1="3069.7" x2="1035.57" y2="1377.54">
      <stop offset="0" stop-opacity="1" stop-color="rgb(75,124,190)" />
      <stop offset="1" stop-opacity="1" stop-color="rgb(157,194,242)" />
    </linearGradient>
    <linearGradient id="GradientRight" gradientUnits="userSpaceOnUse" x1="2976.75" y1="3069.7" x2="3060.4300000000003" y2="1377.54">
      <stop offset="0" stop-opacity="1" stop-color="rgb(75,124,190)" />
      <stop offset="1" stop-opacity="1" stop-color="rgb(157,194,242)" />
    </linearGradient>
  <style>
    @keyframes drawStroke {
        to { stroke-dashoffset: 0; }
    }
    @keyframes fadeInFill {
        to { fill-opacity: 1; }
    }
    @keyframes fadeOutStroke {
        to { stroke-opacity: 0; filter: blur(4px); }
    }
    
    path {
        fill-opacity: 0;
        stroke-opacity: 1;
        stroke-width: 15;
        stroke-linecap: round;
        stroke-linejoin: round;
    }
    
    /* Background shouldn't animate */
    path:nth-of-type(1) {
        fill-opacity: 1;
        stroke: none;
        animation: none;
    }
    
            .path-1 {
                stroke: rgb(100, 150, 220);
                stroke-dasharray: 9609;
                stroke-dashoffset: 9609;
                animation: 
                    drawStroke 2.0s cubic-bezier(0.25, 1, 0.5, 1) 0.0s forwards,
                    fadeInFill 1.0s ease 1.2s forwards,
                    fadeOutStroke 0.8s ease 1.5s forwards;
            }
            
            .path-2 {
                stroke: none;
                animation: fadeInFill 1.0s ease 1.25s forwards;
            }
            
            .path-3 {
                stroke: none;
                animation: fadeInFill 1.0s ease 1.3s forwards;
            }
            
            .path-4 {
                stroke: none;
                animation: fadeInFill 1.0s ease 1.35s forwards;
            }
            
            .path-5 {
                stroke: none;
                animation: fadeInFill 1.0s ease 1.4s forwards;
            }
            
            .path-6 {
                stroke: none;
                animation: fadeInFill 1.0s ease 1.45s forwards;
            }
            
            .path-7 {
                stroke: none;
                animation: fadeInFill 1.0s ease 1.5s forwards;
            }
            
            .path-8 {
                stroke: none;
                animation: fadeInFill 1.0s ease 1.55s forwards;
            }
            
            .path-9 {
                stroke: rgb(100, 150, 220);
                stroke-dasharray: 9609;
                stroke-dashoffset: 9609;
                animation: 
                    drawStroke 2.0s cubic-bezier(0.25, 1, 0.5, 1) 1.2s forwards,
                    fadeInFill 1.0s ease 1.6s forwards,
                    fadeOutStroke 0.8s ease 1.9s forwards;
            }
            
            .path-10 {
                stroke: none;
                animation: fadeInFill 1.0s ease 1.65s forwards;
            }
            
            .path-11 {
                stroke: none;
                animation: fadeInFill 1.0s ease 1.7s forwards;
            }
            
            .path-12 {
                stroke: none;
                animation: fadeInFill 1.0s ease 1.75s forwards;
            }
            
            .path-13 {
                stroke: none;
                animation: fadeInFill 1.0s ease 1.8s forwards;
            }
            
            .path-14 {
                stroke: none;
                animation: fadeInFill 1.0s ease 1.85s forwards;
            }
            
            .path-15 {
                stroke: none;
                animation: fadeInFill 1.0s ease 1.9s forwards;
            }
            
            .path-16 {
                stroke: none;
                animation: fadeInFill 1.0s ease 1.95s forwards;
            }
            
            .path-17 {
                stroke: none;
                animation: fadeInFill 1.0s ease 2.0s forwards;
            }
            
            .path-18 {
                stroke: none;
                animation: fadeInFill 1.0s ease 2.05s forwards;
            }
            </style></defs>

  
  <path fill="rgb(255,255,255)" d="M 0 0 L 4096 0 L 4096 4096 L 0 4096 L 0 0 z" />

  
  <path fill="url(#GradientLeft)" d="M 452.595 1402.55 C 433.746 1367.31 419.723 1324.24 402.947 1287.89 C 387.692 1257.86 384.398 1207.12 427.477 1199.51 C 467.974 1192.36 528.095 1201.88 570.116 1205.59 L 756.086 1221.57 L 887.936 1232.8 C 950.519 1238.14 965.206 1234.08 1021.69 1264.85 C 1122.06 1281.99 1140.81 1392.65 1177.29 1468.23 C 1190.33 1495.25 1280.52 1719.46 1287.8 1722.23 L 1289.46 1721.79 C 1316.34 1646.14 1324.11 1563.78 1397.96 1524.42 C 1464.15 1476.59 1467.56 1482.6 1548.03 1482.55 L 1669.8 1482.39 L 2085.37 1481.81 L 2451.78 1481.27 L 2545.98 1480.93 C 2625.68 1480.45 2634.99 1479.54 2699.86 1531.1 C 2710.44 1543.34 2733.55 1563.85 2719.04 1578.89 C 2717.95 1579.18 2703.28 1581.83 2703.96 1580.94 C 2697.36 1589.6 2667.57 1613.38 2663.49 1620.82 C 2532.06 1735.07 2401.18 1853.46 2271.08 1969.4 L 2158.34 2069.88 C 2138.29 2087.78 2098.14 2127.96 2075.16 2135.36 C 2056.5 2139.79 2046.25 2140.76 2026.88 2139.95 C 1993.87 2140.14 1997.9 2150.93 1976.17 2167.56 L 1975.94 2169.57 C 1965.82 2185.2 1953.74 2213.24 1945.6 2230.91 L 1900.25 2329.32 L 1778.36 2592.3 C 1757.96 2636.31 1736.53 2685.27 1715.13 2728.44 C 1707.98 2746.31 1695.11 2768.41 1689.5 2785.04 C 1654.183 2854.153 1616.387 2939.581 1581.953 3015.382 Q 1564.070 3054.470 1521.085 3054.478 L 1147.890 3054.550 C 957.932 3057.73 927.088 2861.13 880.78 2718.37 L 756.959 2336.79 L 605.064 1868.88 L 557.97 1723.79 C 536.9 1658.9 519.911 1621.94 515.339 1553.65 L 474.27 1456.84 C 468.675 1443.62 455.926 1415.43 452.595 1402.55 z" class="path-1" />
  <path fill="url(#GradientLeft)" d="M 1397.96 1524.42 C 1464.15 1476.59 1467.56 1482.6 1548.03 1482.55 L 1669.8 1482.39 L 2085.37 1481.81 L 2451.78 1481.27 L 2545.98 1480.93 C 2625.68 1480.45 2634.99 1479.54 2699.86 1531.1 C 2710.44 1543.34 2733.55 1563.85 2719.04 1578.89 C 2717.95 1579.18 2703.28 1581.83 2703.96 1580.94 C 2697.36 1589.6 2667.57 1613.38 2663.49 1620.82 C 2532.06 1735.07 2401.18 1853.46 2271.08 1969.4 L 2158.34 2069.88 C 2138.29 2087.78 2098.14 2127.96 2075.16 2135.36 C 2056.5 2139.79 2046.25 2140.76 2026.88 2139.95 C 2018.39 2136.02 2001.6 2134.02 1992.18 2126.94 C 1969.65 2110.01 1947.89 2089.38 1926.82 2070.5 L 1814.78 1970.42 L 1417.84 1617.56 C 1375.41 1569.07 1341.99 1583.09 1397.96 1524.42 z" class="path-2" />
  <path fill="rgb(65,124,211)" d="M 1289.46 1721.79 C 1316.34 1646.14 1324.11 1563.78 1397.96 1524.42 C 1341.99 1583.09 1375.41 1569.07 1417.84 1617.56 L 1814.78 1970.42 L 1926.82 2070.5 C 1947.89 2089.38 1969.65 2110.01 1992.18 2126.94 C 2001.6 2134.02 2018.39 2136.02 2026.88 2139.95 C 1993.87 2140.14 1997.9 2150.93 1976.17 2167.56 L 1975.94 2169.57 C 1965.82 2185.2 1953.74 2213.24 1945.6 2230.91 L 1900.25 2329.32 L 1778.36 2592.3 C 1757.96 2636.31 1736.53 2685.27 1715.13 2728.44 C 1707.6 2722.85 1617.16 2504.73 1607.02 2480.83 L 1398.98 1990.28 C 1363.9 1907.57 1328.63 1824.78 1293.78 1741.98 C 1290.34 1733.81 1289.23 1730.69 1289.46 1721.79 z" class="path-3" />
  <path fill="rgb(39,71,117)" d="M 1976.17 2167.56 C 1972.79 2159.45 1928.79 2123.33 1918.4 2114.16 C 1779.07 1991.26 1640.47 1867.33 1501.75 1743.73 C 1488.41 1731.85 1338.99 1615.08 1390.59 1600.44 C 1397.64 1601.54 1409.45 1613.17 1417.84 1617.56 L 1814.78 1970.42 L 1926.82 2070.5 C 1947.89 2089.38 1969.65 2110.01 1992.18 2126.94 C 2001.6 2134.02 2018.39 2136.02 2026.88 2139.95 C 1993.87 2140.14 1997.9 2150.93 1976.17 2167.56 z" class="path-4" />
  <path fill="url(#GradientLeft)" d="M 452.595 1402.55 C 433.746 1367.31 419.723 1324.24 402.947 1287.89 C 387.692 1257.86 384.398 1207.12 427.477 1199.51 C 467.974 1192.36 528.095 1201.88 570.116 1205.59 L 756.086 1221.57 L 887.936 1232.8 C 950.519 1238.14 965.206 1234.08 1021.69 1264.85 C 1064.08 1302.03 1070.45 1319.6 1092.25 1371.91 C 1094.75 1377.92 1104.45 1401.05 1105.27 1405.56 C 1103.75 1418.15 1110.82 1425.22 1108.09 1431.85 C 1089.81 1431.63 1079.38 1429.84 1061.4 1427.77 L 1057.78 1429.56 L 1058.71 1428.03 C 1057.7 1432.69 1058.32 1430.8 1062 1437.09 L 1060.94 1440.13 C 1052.86 1443.13 1026.59 1441.15 1017.03 1440.51 L 1017.16 1436.48 C 1020.75 1433.75 1023.13 1431.68 1026.49 1428.65 L 1025.42 1424.8 C 1017.07 1420.46 1022.2 1425.04 1018.18 1425.36 C 1006.9 1426.25 988.444 1422.39 978.218 1426.73 L 975.827 1424.39 C 972.582 1426.32 973.904 1424.87 972.62 1429.33 C 978.024 1432.57 997.338 1433.96 1005.89 1435.74 L 1007.61 1438.51 C 1003.06 1441.54 987.229 1439.06 980.957 1438.48 C 963.623 1436.85 974.634 1432.43 968.173 1423.95 L 965.314 1431.26 L 963.57 1426.44 C 947.788 1415.21 888.005 1422.29 865.761 1419.31 L 863.876 1414.54 C 858.657 1413.39 800.159 1413.21 796.861 1414.88 C 797.734 1419.23 797.756 1419.56 797.672 1424 C 789.229 1430.49 734.134 1425.12 721.682 1423.25 C 713.759 1422.05 707.027 1423.45 698.704 1421.51 L 696.852 1418.49 C 704.368 1416.04 739.882 1418.53 754.101 1416.73 L 755.702 1413.4 C 747.105 1403.47 726.112 1411.36 716.176 1410.2 C 694.693 1407.7 681.514 1402.04 659.279 1406.68 L 658.072 1408.81 C 668.393 1416.85 676.73 1409.11 686.562 1416.09 L 686.571 1420.37 C 673.022 1424.05 655.594 1418.66 642.061 1418.39 C 603.259 1417.74 565.901 1414.76 527.14 1411.34 C 505.981 1409.47 479.122 1414.61 458.75 1405.11 C 455.583 1403.64 457.618 1403.58 452.595 1402.55 z" class="path-5" />
  <path fill="rgb(39,71,117)" d="M 515.339 1553.65 L 926.824 2529.38 L 1073.26 2876.93 C 1097.21 2933.78 1125.81 2997.45 1147.89 3054.55 C 957.932 3057.73 927.088 2861.13 880.78 2718.37 L 756.959 2336.79 L 605.064 1868.88 L 557.97 1723.79 C 536.9 1658.9 519.911 1621.94 515.339 1553.65 z" class="path-6" />
  <path fill="rgb(39,71,117)" d="M 1287.8 1722.23 L 1289.46 1721.79 C 1289.23 1730.69 1290.34 1733.81 1293.78 1741.98 C 1328.63 1824.78 1363.9 1907.57 1398.98 1990.28 L 1607.02 2480.83 C 1617.16 2504.73 1707.6 2722.85 1715.13 2728.44 C 1707.98 2746.31 1695.11 2768.41 1689.5 2785.04 C 1687.67 2773.75 1664.74 2722.24 1659.25 2709.38 L 1593.02 2553.68 L 1377.9 2046.66 C 1341.45 1960.77 1301.16 1870.6 1266.86 1784.44 C 1273.82 1775.84 1285.9 1733.96 1287.8 1722.23 z" class="path-7" />
  <path fill="rgb(30,39,49)" d="M 1021.69 1264.85 C 1122.06 1281.99 1140.81 1392.65 1177.29 1468.23 C 1190.33 1495.25 1280.52 1719.46 1287.8 1722.23 C 1285.9 1733.96 1273.82 1775.84 1266.86 1784.44 L 1172.65 1562.65 C 1157.6 1527.08 1137.86 1475.3 1121.17 1442.61 L 1118.47 1434.34 C 1114.31 1424.64 1109.9 1415.04 1105.27 1405.56 C 1104.45 1401.05 1094.75 1377.92 1092.25 1371.91 C 1070.45 1319.6 1064.08 1302.03 1021.69 1264.85 z" class="path-8" />

  
  <path fill="url(#GradientRight)" d="M 3643.405 1402.55 C 3662.254 1367.31 3676.277 1324.24 3693.053 1287.89 C 3708.308 1257.86 3711.602 1207.12 3668.523 1199.51 C 3628.026 1192.36 3567.905 1201.88 3525.884 1205.59 L 3339.914 1221.57 L 3208.064 1232.8 C 3145.481 1238.14 3130.794 1234.08 3074.31 1264.85 C 2973.94 1281.99 2955.19 1392.65 2918.71 1468.23 C 2905.67 1495.25 2815.48 1719.46 2808.2 1722.23 L 2806.54 1721.79 C 2779.66 1646.14 2771.89 1563.78 2698.04 1524.42 C 2631.85 1476.59 2628.44 1482.6 2547.97 1482.55 L 2426.2 1482.39 L 2010.63 1481.81 L 1644.22 1481.27 L 1550.02 1480.93 C 1470.32 1480.45 1461.01 1479.54 1396.14 1531.1 C 1385.56 1543.34 1362.45 1563.85 1376.96 1578.89 C 1378.05 1579.18 1392.72 1581.83 1392.04 1580.94 C 1398.64 1589.6 1428.43 1613.38 1432.51 1620.82 C 1563.94 1735.07 1694.82 1853.46 1824.92 1969.4 L 1937.66 2069.88 C 1957.71 2087.78 1997.86 2127.96 2020.84 2135.36 C 2039.5 2139.79 2049.75 2140.76 2069.12 2139.95 C 2102.13 2140.14 2098.1 2150.93 2119.83 2167.56 L 2120.06 2169.57 C 2130.18 2185.2 2142.26 2213.24 2150.4 2230.91 L 2195.75 2329.32 L 2317.64 2592.3 C 2338.04 2636.31 2359.47 2685.27 2380.87 2728.44 C 2388.02 2746.31 2400.89 2768.41 2406.5 2785.04 C 2441.818 2854.153 2479.613 2939.581 2514.047 3015.382 Q 2531.930 3054.470 2574.915 3054.478 L 2948.110 3054.550 C 3138.068 3057.73 3168.912 2861.13 3215.22 2718.37 L 3339.041 2336.79 L 3490.936 1868.88 L 3538.03 1723.79 C 3559.1 1658.9 3576.089 1621.94 3580.661 1553.65 L 3621.73 1456.84 C 3627.325 1443.62 3640.074 1415.43 3643.405 1402.55 z" class="path-9" />
  <path fill="url(#GradientRight)" d="M 2698.04 1524.42 C 2631.85 1476.59 2628.44 1482.6 2547.97 1482.55 L 2426.2 1482.39 L 2010.63 1481.81 L 1644.22 1481.27 L 1550.02 1480.93 C 1470.32 1480.45 1461.01 1479.54 1396.14 1531.1 C 1385.56 1543.34 1362.45 1563.85 1376.96 1578.89 C 1378.05 1579.18 1392.72 1581.83 1392.04 1580.94 C 1398.64 1589.6 1428.43 1613.38 1432.51 1620.82 C 1563.94 1735.07 1694.82 1853.46 1824.92 1969.4 L 1937.66 2069.88 C 1957.71 2087.78 1997.86 2127.96 2020.84 2135.36 C 2039.5 2139.79 2049.75 2140.76 2069.12 2139.95 C 2077.61 2136.02 2094.4 2134.02 2103.82 2126.94 C 2126.35 2110.01 2148.11 2089.38 2169.18 2070.5 L 2281.22 1970.42 L 2678.16 1617.56 C 2720.59 1569.07 2754.01 1583.09 2698.04 1524.42 z" class="path-10" />
  <path fill="rgb(65,124,211)" d="M 2806.54 1721.79 C 2779.66 1646.14 2771.89 1563.78 2698.04 1524.42 C 2754.01 1583.09 2720.59 1569.07 2678.16 1617.56 L 2281.22 1970.42 L 2169.18 2070.5 C 2148.11 2089.38 2126.35 2110.01 2103.82 2126.94 C 2094.4 2134.02 2077.61 2136.02 2069.12 2139.95 C 2102.13 2140.14 2098.1 2150.93 2119.83 2167.56 L 2120.06 2169.57 C 2130.18 2185.2 2142.26 2213.24 2150.4 2230.91 L 2195.75 2329.32 L 2317.64 2592.3 C 2338.04 2636.31 2359.47 2685.27 2380.87 2728.44 C 2388.4 2722.85 2478.84 2504.73 2488.98 2480.83 L 2697.02 1990.28 C 2732.1 1907.57 2767.37 1824.78 2802.22 1741.98 C 2805.66 1733.81 2806.77 1730.69 2806.54 1721.79 z" class="path-11" />
  <path fill="rgb(39,71,117)" d="M 2119.83 2167.56 C 2123.21 2159.45 2167.21 2123.33 2177.6 2114.16 C 2316.93 1991.26 2455.53 1867.33 2594.25 1743.73 C 2607.59 1731.85 2757.01 1615.08 2705.41 1600.44 C 2698.36 1601.54 2686.55 1613.17 2678.16 1617.56 L 2281.22 1970.42 L 2169.18 2070.5 C 2148.11 2089.38 2126.35 2110.01 2103.82 2126.94 C 2094.4 2134.02 2077.61 2136.02 2069.12 2139.95 C 2102.13 2140.14 2098.1 2150.93 2119.83 2167.56 z" class="path-12" />
  <path fill="url(#GradientRight)" d="M 3643.405 1402.55 C 3662.254 1367.31 3676.277 1324.24 3693.053 1287.89 C 3708.308 1257.86 3711.602 1207.12 3668.523 1199.51 C 3628.026 1192.36 3567.905 1201.88 3525.884 1205.59 L 3339.914 1221.57 L 3208.064 1232.8 C 3145.481 1238.14 3130.794 1234.08 3074.31 1264.85 C 3031.92 1302.03 3025.55 1319.6 3003.75 1371.91 C 3001.25 1377.92 2991.55 1401.05 2990.73 1405.56 C 2992.25 1418.15 2985.18 1425.22 2987.91 1431.85 C 3006.19 1431.63 3016.62 1429.84 3034.6 1427.77 L 3038.22 1429.56 L 3037.29 1428.03 C 3038.3 1432.69 3037.68 1430.8 3034.0 1437.09 L 3035.06 1440.13 C 3043.14 1443.13 3069.41 1441.15 3078.97 1440.51 L 3078.84 1436.48 C 3075.25 1433.75 3072.87 1431.68 3069.51 1428.65 L 3070.58 1424.8 C 3078.93 1420.46 3073.8 1425.04 3077.82 1425.36 C 3089.1 1426.25 3107.556 1422.39 3117.782 1426.73 L 3120.173 1424.39 C 3123.418 1426.32 3122.096 1424.87 3123.38 1429.33 C 3117.976 1432.57 3098.662 1433.96 3090.11 1435.74 L 3088.39 1438.51 C 3092.94 1441.54 3108.771 1439.06 3115.043 1438.48 C 3132.377 1436.85 3121.366 1432.43 3127.827 1423.95 L 3130.686 1431.26 L 3132.43 1426.44 C 3148.212 1415.21 3207.995 1422.29 3230.239 1419.31 L 3232.124 1414.54 C 3237.343 1413.39 3295.841 1413.21 3299.139 1414.88 C 3298.266 1419.23 3298.244 1419.56 3298.328 1424.0 C 3306.771 1430.49 3361.866 1425.12 3374.318 1423.25 C 3382.241 1422.05 3388.973 1423.45 3397.296 1421.51 L 3399.148 1418.49 C 3391.632 1416.04 3356.118 1418.53 3341.899 1416.73 L 3340.298 1413.4 C 3348.895 1403.47 3369.888 1411.36 3379.824 1410.2 C 3401.307 1407.7 3414.486 1402.04 3436.721 1406.68 L 3437.928 1408.81 C 3427.607 1416.85 3419.27 1409.11 3409.438 1416.09 L 3409.429 1420.37 C 3422.978 1424.05 3440.406 1418.66 3453.939 1418.39 C 3492.741 1417.74 3530.099 1414.76 3568.86 1411.34 C 3590.019 1409.47 3616.878 1414.61 3637.25 1405.11 C 3640.417 1403.64 3638.382 1403.58 3643.405 1402.55 z" class="path-13" />
  <path fill="rgb(39,71,117)" d="M 3580.661 1553.65 L 3169.176 2529.38 L 3022.74 2876.93 C 2998.79 2933.78 2970.19 2997.45 2948.11 3054.55 C 3138.068 3057.73 3168.912 2861.13 3215.22 2718.37 L 3339.041 2336.79 L 3490.936 1868.88 L 3538.03 1723.79 C 3559.1 1658.9 3576.089 1621.94 3580.661 1553.65 z" class="path-14" />
  <path fill="rgb(39,71,117)" d="M 2808.2 1722.23 L 2806.54 1721.79 C 2806.77 1730.69 2805.66 1733.81 2802.22 1741.98 C 2767.37 1824.78 2732.1 1907.57 2697.02 1990.28 L 2488.98 2480.83 C 2478.84 2504.73 2388.4 2722.85 2380.87 2728.44 C 2388.02 2746.31 2400.89 2768.41 2406.5 2785.04 C 2408.33 2773.75 2431.26 2722.24 2436.75 2709.38 L 2502.98 2553.68 L 2718.1 2046.66 C 2754.55 1960.77 2794.84 1870.6 2829.14 1784.44 C 2822.18 1775.84 2810.1 1733.96 2808.2 1722.23 z" class="path-15" />
  <path fill="rgb(30,39,49)" d="M 3074.31 1264.85 C 2973.94 1281.99 2955.19 1392.65 2918.71 1468.23 C 2905.67 1495.25 2815.48 1719.46 2808.2 1722.23 C 2810.1 1733.96 2822.18 1775.84 2829.14 1784.44 L 2923.35 1562.65 C 2938.4 1527.08 2958.14 1475.3 2974.83 1442.61 L 2977.53 1434.34 C 2981.69 1424.64 2986.1 1415.04 2990.73 1405.56 C 2991.55 1401.05 3001.25 1377.92 3003.75 1371.91 C 3025.55 1319.6 3031.92 1302.03 3074.31 1264.85 z" class="path-16" />

  
  <path fill="rgb(30,39,49)" d="M 2026.88 2139.95 C 2046.25 2140.76 2056.5 2139.79 2075.16 2135.36 C 2090.33 2141.04 2095.9 2144.68 2108.84 2155.05 C 2071.94 2188.8 2042.26 2194.79 1994.3 2176.72 C 1988.84 2174.66 1981.46 2170.24 1975.94 2169.57 L 1976.17 2167.56 C 1997.9 2150.93 1993.87 2140.14 2026.88 2139.95 z" class="path-17" />
  <path fill="rgb(30,39,49)" d="M 2069.12 2139.95 C 2049.75 2140.76 2039.5 2139.79 2020.84 2135.36 C 2005.67 2141.04 2000.1 2144.68 1987.16 2155.05 C 2024.06 2188.8 2053.74 2194.79 2101.7 2176.72 C 2107.16 2174.66 2114.54 2170.24 2120.06 2169.57 L 2119.83 2167.56 C 2098.1 2150.93 2102.13 2140.14 2069.12 2139.95 z" class="path-18" />
</svg>