<svg xmlns:dc="http://purl.org/dc/elements/1.1/" xmlns:cc="http://creativecommons.org/ns#" xmlns:rdf="http://www.w3.org/1999/02/22-rdf-syntax-ns#" xmlns:svg="http://www.w3.org/2000/svg" xmlns="http://www.w3.org/2000/svg" xmlns:xlink="http://www.w3.org/1999/xlink" id="svg268145" viewBox="0 0 1024 768" height="768px" width="1024px" version="1.1">
  <metadata id="metadata268151">
    <rdf:rdf>
      <cc:work rdf:about="">
        <dc:format>image/svg+xml</dc:format>
        <dc:type rdf:resource="http://purl.org/dc/dcmitype/StillImage"></dc:type>
      </cc:work>
    </rdf:rdf>
  </metadata>
  <defs id="defs268149"></defs>
  <linearGradient spreadMethod="pad" y2="30%" x2="-10%" y1="120%" x1="30%" id="3d_gradient2-logo-62837c08-d80a-4258-9eda-4a3432ba0b72">
    <stop id="stop268126" stop-opacity="1" stop-color="#ffffff" offset="0%"></stop>
    <stop id="stop268128" stop-opacity="1" stop-color="#000000" offset="100%"></stop>
  </linearGradient>
  <linearGradient gradientTransform="rotate(-30)" spreadMethod="pad" y2="30%" x2="-10%" y1="120%" x1="30%" id="3d_gradient3-logo-62837c08-d80a-4258-9eda-4a3432ba0b72">
    <stop id="stop268131" stop-opacity="1" stop-color="#ffffff" offset="0%"></stop>
    <stop id="stop268133" stop-opacity="1" stop-color="#cccccc" offset="50%"></stop>
    <stop id="stop268135" stop-opacity="1" stop-color="#000000" offset="100%"></stop>
  </linearGradient>
  <g id="logo-group">
    <image xlink:href="" id="container" x="272" y="144" width="480" height="480" style="display: none;" transform="translate(0 0)"></image>
    <g id="logo-center" transform="translate(269.55328125 0)">
      <image xlink:href="" id="icon_container" style="display: none;" x="0" y="0"></image>
      <g id="slogan" style="font-style:normal;font-weight:normal;font-size:32px;line-height:1;font-family:'Brandmark Sans 30 Color';font-variant-ligatures:none;text-align:center;text-anchor:middle" transform="translate(0 0)"></g>
      <g id="title" style="font-style:normal;font-weight:normal;font-size:72px;line-height:1;font-family:'Brandmark Sans 30 Color';font-variant-ligatures:normal;text-align:center;text-anchor:middle" transform="translate(0 0)">
        <g id="path268154" aria-label="W" transform="translate(0 310.19500000000005) translate(50 32.72) scale(1.375) translate(-372.04494 46.08)"> <path class="c1" d="M74.90968,76.23584l9.86475,37.2272h2.52002l7.56104-37.2272h10.29688l7.56055,37.2272h2.52002 l9.86475-37.2272h9.64893l-12.24072,46.08398h-17.49756l-4.96875-24.62613l-5.04004,24.62613H77.50197L65.26076,76.23584H74.90968z " transform="translate(306.78418 -122.31584)" stroke-width="0" stroke-linejoin="miter" stroke-miterlimit="2" fill="#000000" stroke="#000000"></path> </g>
        <g id="path268156" aria-label="h" transform="translate(0 310.19500000000005) translate(149.96679 32.72) scale(1.375) translate(-444.74806 46.08)"> <path class="c1" d="M91.36134,76.2358v11.44904c2.08813-2.16022,5.11243-3.16827,9.50476-3.16827 c11.66504,0,17.13757,5.40045,17.13757,16.92145v20.88177h-9.36084v-18.72156c0-6.69659-1.65625-9.86487-6.19263-9.86487H96.9778 c-4.53638,0-5.61646,3.16827-5.61646,8.2807v20.30573H82.0005V76.2358H91.36134z" transform="translate(362.74756 -122.3158)" stroke-width="0" stroke-linejoin="miter" stroke-miterlimit="2" fill="#000000" stroke="#000000"></path> </g>
        <g id="path268158" aria-label="y" transform="translate(0 310.19500000000005) translate(203.9140625 44.6) scale(1.375) translate(-483.98244 37.44)"> <path class="c1" d="M82.03615,105.75838V84.87655h9.36084v18.72168c0,6.69653,3.09668,9.86481,7.63281,9.86481h4.03223 c4.53662,0,5.6167-3.16827,5.6167-8.2807V84.87655h9.36084v34.56299c0,10.29694-6.26465,16.56147-16.56152,16.56147h-2.95215 c-11.23291,0-16.56152-5.32843-16.56152-12.24104h9.36084c0,2.3042,0.86426,2.88025,7.20068,2.88025h2.95215 c5.76025,0,7.20068-1.44019,7.20068-7.12866c-2.08838,2.16022-5.1123,3.16827-9.50488,3.16827 C87.5088,122.67983,82.03615,117.27938,82.03615,105.75838z" transform="translate(402.01806 -122.31655)" stroke-width="0" stroke-linejoin="miter" stroke-miterlimit="2" fill="#000000" stroke="#000000"></path> </g>
        <g id="path268160" aria-label="M" transform="translate(0 310.19500000000005) translate(257.86132125 32.72) scale(1.375) translate(-523.21681 46.08)"> <path class="c1" d="M94.99904,76.23584l5.04053,24.62613l4.96826-24.62613h17.49756l10.08105,46.08398h-9.64893 l-8.13672-37.2272h-2.08813l-7.56079,37.2272H94.855l-7.56055-37.2272h-2.08838l-8.13647,37.2272h-9.64893L77.5015,76.23584 H94.99904z" transform="translate(455.79614 -122.31584)" stroke-width="0" stroke-linejoin="miter" stroke-miterlimit="2" fill="#000000" stroke="#000000"></path> </g>
        <g id="path268162" aria-label="a" transform="translate(0 310.19500000000005) translate(347.96679 44.105000000000004) scale(1.375) translate(-588.74806 37.8)"> <path class="c1" d="M80.88426,103.45419c0-10.44092,7.1286-18.93762,17.64154-18.93762 c4.75238,0,8.4967,1.72815,11.23297,4.6084v-4.24841h9.36078v37.44324h-9.36078v-4.24835 c-2.73627,2.95227-6.48059,4.68042-11.23297,4.68042C88.01286,122.75185,80.88426,114.18313,80.88426,103.45419z M97.80571,113.46304h4.32037c4.89642,0,7.63269-3.02423,7.63269-7.84869v-4.32031c0-4.82446-2.73627-7.84869-7.63269-7.84869 h-4.32037c-4.89642,0-8.2807,3.74432-8.2807,10.00885S92.90929,113.46304,97.80571,113.46304z" transform="translate(507.8638 -122.31657)" stroke-width="0" stroke-linejoin="miter" stroke-miterlimit="2" fill="#000000" stroke="#000000"></path> </g>
        <g id="path268164" aria-label="i" transform="translate(0 310.19500000000005) translate(404.81444625000006 32.72) scale(1.375) translate(-630.09181 46.08)"> <rect x="95.32033" y="76.2358" class="c3" width="9.36084" height="5.7605" transform="translate(534.771482 -122.315802)" stroke-width="0" stroke-linejoin="miter" stroke-miterlimit="2" fill="#000000" stroke="#000000"></rect> <polygon class="c1" points="104.60915,122.31979 95.32033,122.31979 95.32033,84.87655 104.68117,84.87655 " transform="translate(534.771482 -122.315802)" stroke-width="0" stroke-linejoin="miter" stroke-miterlimit="2" fill="#000000" stroke="#000000"></polygon> </g>
        <g id="path268166" aria-label="l" transform="translate(0 310.19500000000005) translate(422.0234375 32.72) scale(1.375) translate(-642.60744 46.08)"> <path class="c1" d="M104.68117,76.2358v46.08398h-9.36084V76.2358H104.68117z" transform="translate(547.28711 -122.3158)" stroke-width="0" stroke-linejoin="miter" stroke-miterlimit="2" fill="#000000" stroke="#000000"></path> </g>
             </g>
      <image xlink:href="" id="icon" style="display: none;" x="0" y="0"></image>
    </g>
  </g>
</svg>
