<svg version="1.1" xmlns="http://www.w3.org/2000/svg" style="display: block;" viewBox="0 0 4096 4096" width="4096" height="4096" preserveAspectRatio="none">
<defs>
	<linearGradient id="Gradient1" gradientUnits="userSpaceOnUse" x1="2835.89" y1="3094.91" x2="3090.94" y2="1464.32">
		<stop class="stop0" offset="0" stop-opacity="1" stop-color="rgb(64,114,182)"/>
		<stop class="stop1" offset="1" stop-opacity="1" stop-color="rgb(148,188,237)"/>
	</linearGradient>
	<linearGradient id="Gradient2" gradientUnits="userSpaceOnUse" x1="1119.25" y1="3069.7" x2="1035.57" y2="1377.54">
		<stop class="stop0" offset="0" stop-opacity="1" stop-color="rgb(75,124,190)"/>
		<stop class="stop1" offset="1" stop-opacity="1" stop-color="rgb(157,194,242)"/>
	</linearGradient>
</defs>
<path transform="translate(0,0)" fill="rgb(0,0,0)" d="M 0 0 L 4096 0 L 4096 4096 L 0 4096 L 0 0 z"/>
<path transform="translate(0,0)" fill="url(#Gradient2)" d="M 452.595 1402.55 C 433.746 1367.31 419.723 1324.24 402.947 1287.89 C 387.692 1257.86 384.398 1207.12 427.477 1199.51 C 467.974 1192.36 528.095 1201.88 570.116 1205.59 L 756.086 1221.57 L 887.936 1232.8 C 950.519 1238.14 965.206 1234.08 1021.69 1264.85 C 1122.06 1281.99 1140.81 1392.65 1177.29 1468.23 C 1190.33 1495.25 1280.52 1719.46 1287.8 1722.23 L 1289.46 1721.79 C 1316.34 1646.14 1324.11 1563.78 1397.96 1524.42 C 1464.15 1476.59 1467.56 1482.6 1548.03 1482.55 L 1669.8 1482.39 L 2085.37 1481.81 L 2451.78 1481.27 L 2545.98 1480.93 C 2625.68 1480.45 2634.99 1479.54 2699.86 1531.1 C 2710.44 1543.34 2733.55 1563.85 2719.04 1578.89 C 2717.95 1579.18 2703.28 1581.83 2703.96 1580.94 C 2697.36 1589.6 2667.57 1613.38 2663.49 1620.82 C 2532.06 1735.07 2401.18 1853.46 2271.08 1969.4 L 2158.34 2069.88 C 2138.29 2087.78 2098.14 2127.96 2075.16 2135.36 C 2056.5 2139.79 2046.25 2140.76 2026.88 2139.95 C 1993.87 2140.14 1997.9 2150.93 1976.17 2167.56 L 1975.94 2169.57 C 1965.82 2185.2 1953.74 2213.24 1945.6 2230.91 L 1900.25 2329.32 L 1778.36 2592.3 C 1757.96 2636.31 1736.53 2685.27 1715.13 2728.44 C 1707.98 2746.31 1695.11 2768.41 1689.5 2785.04 C 1647.95 2866.35 1602.97 2970.24 1564.07 3054.47 L 1147.89 3054.55 C 957.932 3057.73 927.088 2861.13 880.78 2718.37 L 756.959 2336.79 L 605.064 1868.88 L 557.97 1723.79 C 536.9 1658.9 519.911 1621.94 515.339 1553.65 L 474.27 1456.84 C 468.675 1443.62 455.926 1415.43 452.595 1402.55 z"/>
<path transform="translate(0,0)" fill="rgb(172,208,246)" d="M 1397.96 1524.42 C 1464.15 1476.59 1467.56 1482.6 1548.03 1482.55 L 1669.8 1482.39 L 2085.37 1481.81 L 2451.78 1481.27 L 2545.98 1480.93 C 2625.68 1480.45 2634.99 1479.54 2699.86 1531.1 C 2710.44 1543.34 2733.55 1563.85 2719.04 1578.89 C 2717.95 1579.18 2703.28 1581.83 2703.96 1580.94 C 2697.36 1589.6 2667.57 1613.38 2663.49 1620.82 C 2532.06 1735.07 2401.18 1853.46 2271.08 1969.4 L 2158.34 2069.88 C 2138.29 2087.78 2098.14 2127.96 2075.16 2135.36 C 2056.5 2139.79 2046.25 2140.76 2026.88 2139.95 C 2018.39 2136.02 2001.6 2134.02 1992.18 2126.94 C 1969.65 2110.01 1947.89 2089.38 1926.82 2070.5 L 1814.78 1970.42 L 1417.84 1617.56 C 1375.41 1569.07 1341.99 1583.09 1397.96 1524.42 z"/>
<path transform="translate(0,0)" fill="rgb(65,124,211)" d="M 1289.46 1721.79 C 1316.34 1646.14 1324.11 1563.78 1397.96 1524.42 C 1341.99 1583.09 1375.41 1569.07 1417.84 1617.56 L 1814.78 1970.42 L 1926.82 2070.5 C 1947.89 2089.38 1969.65 2110.01 1992.18 2126.94 C 2001.6 2134.02 2018.39 2136.02 2026.88 2139.95 C 1993.87 2140.14 1997.9 2150.93 1976.17 2167.56 L 1975.94 2169.57 C 1965.82 2185.2 1953.74 2213.24 1945.6 2230.91 L 1900.25 2329.32 L 1778.36 2592.3 C 1757.96 2636.31 1736.53 2685.27 1715.13 2728.44 C 1707.6 2722.85 1617.16 2504.73 1607.02 2480.83 L 1398.98 1990.28 C 1363.9 1907.57 1328.63 1824.78 1293.78 1741.98 C 1290.34 1733.81 1289.23 1730.69 1289.46 1721.79 z"/>
<path transform="translate(0,0)" fill="rgb(39,71,117)" d="M 1976.17 2167.56 C 1972.79 2159.45 1928.79 2123.33 1918.4 2114.16 C 1779.07 1991.26 1640.47 1867.33 1501.75 1743.73 C 1488.41 1731.85 1338.99 1615.08 1390.59 1600.44 C 1397.64 1601.54 1409.45 1613.17 1417.84 1617.56 L 1814.78 1970.42 L 1926.82 2070.5 C 1947.89 2089.38 1969.65 2110.01 1992.18 2126.94 C 2001.6 2134.02 2018.39 2136.02 2026.88 2139.95 C 1993.87 2140.14 1997.9 2150.93 1976.17 2167.56 z"/>
<path transform="translate(0,0)" fill="rgb(172,208,246)" d="M 452.595 1402.55 C 433.746 1367.31 419.723 1324.24 402.947 1287.89 C 387.692 1257.86 384.398 1207.12 427.477 1199.51 C 467.974 1192.36 528.095 1201.88 570.116 1205.59 L 756.086 1221.57 L 887.936 1232.8 C 950.519 1238.14 965.206 1234.08 1021.69 1264.85 C 1064.08 1302.03 1070.45 1319.6 1092.25 1371.91 C 1094.75 1377.92 1104.45 1401.05 1105.27 1405.56 C 1103.75 1418.15 1110.82 1425.22 1108.09 1431.85 C 1089.81 1431.63 1079.38 1429.84 1061.4 1427.77 L 1057.78 1429.56 L 1058.71 1428.03 C 1057.7 1432.69 1058.32 1430.8 1062 1437.09 L 1060.94 1440.13 C 1052.86 1443.13 1026.59 1441.15 1017.03 1440.51 L 1017.16 1436.48 C 1020.75 1433.75 1023.13 1431.68 1026.49 1428.65 L 1025.42 1424.8 C 1017.07 1420.46 1022.2 1425.04 1018.18 1425.36 C 1006.9 1426.25 988.444 1422.39 978.218 1426.73 L 975.827 1424.39 C 972.582 1426.32 973.904 1424.87 972.62 1429.33 C 978.024 1432.57 997.338 1433.96 1005.89 1435.74 L 1007.61 1438.51 C 1003.06 1441.54 987.229 1439.06 980.957 1438.48 C 963.623 1436.85 974.634 1432.43 968.173 1423.95 L 965.314 1431.26 L 963.57 1426.44 C 947.788 1415.21 888.005 1422.29 865.761 1419.31 L 863.876 1414.54 C 858.657 1413.39 800.159 1413.21 796.861 1414.88 C 797.734 1419.23 797.756 1419.56 797.672 1424 C 789.229 1430.49 734.134 1425.12 721.682 1423.25 C 713.759 1422.05 707.027 1423.45 698.704 1421.51 L 696.852 1418.49 C 704.368 1416.04 739.882 1418.53 754.101 1416.73 L 755.702 1413.4 C 747.105 1403.47 726.112 1411.36 716.176 1410.2 C 694.693 1407.7 681.514 1402.04 659.279 1406.68 L 658.072 1408.81 C 668.393 1416.85 676.73 1409.11 686.562 1416.09 L 686.571 1420.37 C 673.022 1424.05 655.594 1418.66 642.061 1418.39 C 603.259 1417.74 565.901 1414.76 527.14 1411.34 C 505.981 1409.47 479.122 1414.61 458.75 1405.11 C 455.583 1403.64 457.618 1403.58 452.595 1402.55 z"/>
<path transform="translate(0,0)" fill="rgb(39,71,117)" d="M 515.339 1553.65 L 926.824 2529.38 L 1073.26 2876.93 C 1097.21 2933.78 1125.81 2997.45 1147.89 3054.55 C 957.932 3057.73 927.088 2861.13 880.78 2718.37 L 756.959 2336.79 L 605.064 1868.88 L 557.97 1723.79 C 536.9 1658.9 519.911 1621.94 515.339 1553.65 z"/>
<path transform="translate(0,0)" fill="rgb(39,71,117)" d="M 1287.8 1722.23 L 1289.46 1721.79 C 1289.23 1730.69 1290.34 1733.81 1293.78 1741.98 C 1328.63 1824.78 1363.9 1907.57 1398.98 1990.28 L 1607.02 2480.83 C 1617.16 2504.73 1707.6 2722.85 1715.13 2728.44 C 1707.98 2746.31 1695.11 2768.41 1689.5 2785.04 C 1687.67 2773.75 1664.74 2722.24 1659.25 2709.38 L 1593.02 2553.68 L 1377.9 2046.66 C 1341.45 1960.77 1301.16 1870.6 1266.86 1784.44 C 1273.82 1775.84 1285.9 1733.96 1287.8 1722.23 z"/>
<path transform="translate(0,0)" fill="rgb(30,39,49)" d="M 1021.69 1264.85 C 1122.06 1281.99 1140.81 1392.65 1177.29 1468.23 C 1190.33 1495.25 1280.52 1719.46 1287.8 1722.23 C 1285.9 1733.96 1273.82 1775.84 1266.86 1784.44 L 1172.65 1562.65 C 1157.6 1527.08 1137.86 1475.3 1121.17 1442.61 L 1118.47 1434.34 C 1114.31 1424.64 1109.9 1415.04 1105.27 1405.56 C 1104.45 1401.05 1094.75 1377.92 1092.25 1371.91 C 1070.45 1319.6 1064.08 1302.03 1021.69 1264.85 z"/>
<path transform="translate(0,0)" fill="rgb(172,208,246)" d="M 1121.17 1442.61 C 1117.69 1455.71 1089.58 1438.64 1073.94 1446.43 L 1071.51 1445.05 C 1067.09 1446.25 1068.92 1446.58 1065.93 1445.36 L 1067.08 1442.86 C 1086.64 1429.72 1092.01 1449.04 1118.47 1434.34 L 1121.17 1442.61 z"/>
<path transform="translate(0,0)" fill="rgb(172,208,246)" d="M 807.893 1421.07 C 812.926 1421.84 818.312 1420.26 823.585 1421.67 C 846.948 1427.92 871.435 1424.33 895.291 1424.6 C 901.448 1424.67 906.729 1425.2 911.209 1429.71 L 910.508 1433.82 L 906.648 1435.37 L 901.762 1431.55 C 896.614 1431.19 897.882 1430.94 894.608 1434.53 C 880.779 1434.57 872.9 1431.65 860.62 1431.09 C 841.325 1430.21 821.666 1429.59 802.32 1428.81 L 800.072 1426.31 C 802.922 1425 804.645 1424.76 807.708 1424.22 L 807.893 1421.07 z"/>
<path transform="translate(0,0)" fill="rgb(172,208,246)" d="M 916.721 1426.21 C 931.596 1428.67 944.533 1428.82 959.561 1429.28 L 961.653 1434.05 C 952.905 1439.74 936.49 1437.74 926.129 1436.45 C 920.437 1435.74 919.435 1431.29 916.721 1426.21 z"/>
<path transform="translate(0,0)" fill="url(#Gradient1)" d="M 2794.27 1712.42 C 2803.08 1706.1 2827.82 1641.97 2834.4 1626.45 L 2937.45 1383.51 C 2955.11 1341.89 2971.82 1298.51 2991.69 1258.02 C 3031.42 1177.07 3125.43 1185.8 3199.75 1182.26 L 3404.64 1172.42 L 3523.24 1166.79 C 3559.57 1165.08 3594.14 1159.83 3627.93 1175.88 C 3638.05 1180.69 3647.98 1179.83 3658.39 1185.32 C 3687.01 1199.73 3704.74 1213.43 3693.86 1248.39 C 3684.85 1277.36 3670.79 1307.12 3658.93 1335.08 L 3585.54 1507.98 C 3590.38 1583.98 3579.06 1605.94 3555.96 1677.2 L 3512.91 1809.82 L 3378.23 2224.49 L 3232.23 2674.39 L 3185 2819.8 C 3165.85 2878.73 3157.09 2921.63 3115.03 2969.8 C 3079.76 3010.43 3031.51 3037.6 2978.49 3046.7 C 2962.56 3049.48 2946.87 3049.36 2932.81 3051.62 C 2926.12 3056.58 2813.93 3054.52 2795.82 3054.52 L 2532.95 3054.55 L 2397.48 2762.85 C 2387.96 2741.21 2376.78 2720 2367.09 2698.28 C 2361.68 2682.54 2341.7 2642.41 2334.04 2625.86 L 2263.83 2474.22 L 2165.65 2262.31 C 2157.04 2243.75 2127.89 2177.67 2117.51 2163.74 L 2108.84 2155.05 C 2095.9 2144.68 2090.33 2141.04 2075.16 2135.36 C 2098.14 2127.96 2138.29 2087.78 2158.34 2069.88 L 2271.08 1969.4 C 2401.18 1853.46 2532.06 1735.07 2663.49 1620.82 C 2667.57 1613.38 2697.36 1589.6 2703.96 1580.94 C 2703.28 1581.83 2717.95 1579.18 2719.04 1578.89 C 2733.55 1563.85 2710.44 1543.34 2699.86 1531.1 C 2763.44 1574.56 2768.9 1640.79 2794.27 1712.42 z"/>
<path transform="translate(0,0)" fill="rgb(65,124,211)" d="M 2699.86 1531.1 C 2763.44 1574.56 2768.9 1640.79 2794.27 1712.42 L 2794.57 1714.13 C 2799.16 1728.17 2809.47 1762.55 2815.58 1774.16 C 2782.08 1856.97 2745 1941.12 2709.99 2023.6 L 2515.47 2482.2 L 2436.39 2668.24 C 2427.75 2688.52 2402.61 2744.23 2397.48 2762.85 C 2387.96 2741.21 2376.78 2720 2367.09 2698.28 C 2361.68 2682.54 2341.7 2642.41 2334.04 2625.86 L 2263.83 2474.22 L 2165.65 2262.31 C 2157.04 2243.75 2127.89 2177.67 2117.51 2163.74 L 2108.84 2155.05 C 2095.9 2144.68 2090.33 2141.04 2075.16 2135.36 C 2098.14 2127.96 2138.29 2087.78 2158.34 2069.88 L 2271.08 1969.4 C 2401.18 1853.46 2532.06 1735.07 2663.49 1620.82 C 2667.57 1613.38 2697.36 1589.6 2703.96 1580.94 C 2703.28 1581.83 2717.95 1579.18 2719.04 1578.89 C 2733.55 1563.85 2710.44 1543.34 2699.86 1531.1 z"/>
<path transform="translate(0,0)" fill="rgb(39,71,117)" d="M 2794.57 1714.13 C 2799.16 1728.17 2809.47 1762.55 2815.58 1774.16 C 2782.08 1856.97 2745 1941.12 2709.99 2023.6 L 2515.47 2482.2 L 2436.39 2668.24 C 2427.75 2688.52 2402.61 2744.23 2397.48 2762.85 C 2387.96 2741.21 2376.78 2720 2367.09 2698.28 C 2371.06 2702.94 2370.75 2704.24 2375.61 2705.6 C 2385.99 2687.18 2403.9 2640.74 2413.16 2618.93 L 2489.2 2439.88 L 2711.13 1916.67 C 2722.4 1890.15 2792.87 1733.07 2794.57 1714.13 z"/>
<path transform="translate(0,0)" fill="rgb(39,71,117)" d="M 2663.49 1620.82 C 2670.98 1617.89 2681.04 1608.32 2687.5 1608.61 C 2697.65 1623.38 2683.84 1640.23 2673.43 1650.47 C 2650.16 1673.36 2625.55 1695.01 2601.24 1716.79 L 2477.56 1827.08 C 2364.38 1928.93 2250.45 2029.95 2135.79 2130.13 C 2131.48 2133.86 2111.46 2149.8 2112.75 2155.48 C 2114.61 2158.72 2116.2 2161.47 2117.51 2163.74 L 2108.84 2155.05 C 2095.9 2144.68 2090.33 2141.04 2075.16 2135.36 C 2098.14 2127.96 2138.29 2087.78 2158.34 2069.88 L 2271.08 1969.4 C 2401.18 1853.46 2532.06 1735.07 2663.49 1620.82 z"/>
<path transform="translate(0,0)" fill="rgb(172,208,246)" d="M 2794.27 1712.42 C 2803.08 1706.1 2827.82 1641.97 2834.4 1626.45 L 2937.45 1383.51 C 2955.11 1341.89 2971.82 1298.51 2991.69 1258.02 C 3031.42 1177.07 3125.43 1185.8 3199.75 1182.26 L 3404.64 1172.42 L 3523.24 1166.79 C 3559.57 1165.08 3594.14 1159.83 3627.93 1175.88 C 3638.05 1180.69 3647.98 1179.83 3658.39 1185.32 C 3687.01 1199.73 3704.74 1213.43 3693.86 1248.39 C 3684.85 1277.36 3670.79 1307.12 3658.93 1335.08 L 3585.54 1507.98 L 3581.25 1515.91 L 3578.18 1516.66 C 3573.12 1521.08 3570.86 1530.8 3566.98 1538.45 C 3452.75 1535.32 3338.76 1534.36 3224.52 1532.72 C 3124.98 1531.3 3024.81 1526.85 2925.24 1527.02 C 2933.33 1510.42 2955.57 1463.86 2954.84 1447.63 C 2943.74 1471.12 2926.74 1517.33 2915.8 1536.05 L 2915.36 1541.61 C 2908.18 1553.02 2889.48 1599.86 2882.86 1615.47 L 2815.58 1774.16 C 2809.47 1762.55 2799.16 1728.17 2794.57 1714.13 L 2794.27 1712.42 z"/>
<path transform="translate(0,0)" fill="rgb(30,39,49)" d="M 2794.27 1712.42 C 2803.08 1706.1 2827.82 1641.97 2834.4 1626.45 L 2937.45 1383.51 C 2955.11 1341.89 2971.82 1298.51 2991.69 1258.02 C 3031.42 1177.07 3125.43 1185.8 3199.75 1182.26 L 3404.64 1172.42 L 3523.24 1166.79 C 3559.57 1165.08 3594.14 1159.83 3627.93 1175.88 C 3638.05 1180.69 3647.98 1179.83 3658.39 1185.32 C 3620.77 1179.91 3562.69 1184.75 3522.9 1186.52 L 3314.5 1195.86 L 3193.27 1201.09 C 3148.75 1203.01 3103.76 1201.63 3065.76 1230.37 C 3019.55 1265.31 3004.84 1336.45 2979.85 1386.89 C 2973.64 1399.43 2957.86 1435.92 2954.84 1447.63 C 2943.74 1471.12 2926.74 1517.33 2915.8 1536.05 L 2915.36 1541.61 C 2908.18 1553.02 2889.48 1599.86 2882.86 1615.47 L 2815.58 1774.16 C 2809.47 1762.55 2799.16 1728.17 2794.57 1714.13 L 2794.27 1712.42 z"/>
<path transform="translate(0,0)" fill="rgb(39,71,117)" d="M 3585.54 1507.98 C 3590.38 1583.98 3579.06 1605.94 3555.96 1677.2 L 3512.91 1809.82 L 3378.23 2224.49 L 3232.23 2674.39 L 3185 2819.8 C 3165.85 2878.73 3157.09 2921.63 3115.03 2969.8 C 3079.76 3010.43 3031.51 3037.6 2978.49 3046.7 C 2962.56 3049.48 2946.87 3049.36 2932.81 3051.62 L 3560.71 1566.35 L 3568.94 1546.98 C 3573.45 1536.59 3578.1 1526.78 3581.25 1515.91 L 3585.54 1507.98 z"/>
<path transform="translate(0,0)" fill="rgb(172,208,246)" d="M 3560.71 1566.35 C 3560.17 1563.84 3559.63 1561.33 3559.08 1558.82 C 3542.75 1548.5 3524.01 1563.22 3510.4 1553.02 L 3511.96 1550.58 C 3524.04 1545.77 3554.5 1546.95 3568.94 1546.98 L 3560.71 1566.35 z"/>
<path transform="translate(0,0)" fill="rgb(172,208,246)" d="M 2915.8 1536.05 C 2926.98 1535.15 2952.14 1532.69 2960.29 1539.44 C 2952.53 1547.82 2935.31 1547.13 2924.65 1545.99 L 2917.41 1545.24 L 2915.36 1541.61 L 2915.8 1536.05 z"/>
<path transform="translate(0,0)" fill="rgb(172,208,246)" d="M 3072 1544 C 3113.01 1532.68 3176.68 1543.11 3220.36 1544.11 C 3291.35 1545.75 3365.75 1542.25 3436.26 1544.33 C 3437.66 1544.37 3441.15 1548.95 3442.14 1550.23 C 3453.78 1549.35 3496.56 1544.82 3503.62 1550.29 L 3504.21 1556.96 C 3397.16 1556.44 3290.11 1554.48 3183.11 1551.09 C 3171.27 1550.82 3121.63 1552.16 3114.87 1550.34 L 3109.3 1544.05 C 3092.47 1548.57 3093.86 1554.3 3074.94 1550.11 C 3072.81 1546.75 3072.99 1547.7 3072 1544 z"/>
<path transform="translate(0,0)" fill="rgb(172,208,246)" d="M 2966.93 1535.36 C 2972.41 1535 2974.72 1535.27 2980.13 1535.69 C 2985.69 1540.52 2984 1539.32 2986.43 1547.67 C 2980.52 1547.47 2976.92 1547.31 2970.95 1546.45 C 2965.76 1541.2 2967.7 1544.44 2966.93 1535.36 z"/>
<path transform="translate(0,0)" fill="rgb(172,208,246)" d="M 3044.32 1543.31 C 3051.32 1540.21 3060.72 1541.17 3069.25 1540.31 L 3072 1544 L 3067.18 1543.55 L 3065.49 1544.99 C 3061.38 1548.45 3059.6 1550.86 3054.41 1551.23 C 3048.14 1548.55 3048.6 1548.7 3044.32 1543.31 z"/>
<path transform="translate(0,0)" fill="rgb(172,208,246)" d="M 3016.87 1534.76 C 3021.87 1536.54 3020.22 1535.59 3024.07 1539.14 C 3025.3 1546.44 3024.2 1545.66 3021.34 1553.72 C 3013.52 1545.16 3014.42 1544.44 3016.87 1534.76 z"/>
<path transform="translate(0,0)" fill="rgb(172,208,246)" d="M 3033.38 1537.81 C 3036.27 1536.53 3039.66 1537.75 3041.07 1540.58 C 3042.48 1543.41 3041.41 1546.85 3038.64 1548.38 C 3036.74 1549.43 3034.41 1549.36 3032.58 1548.18 C 3030.75 1547.01 3029.72 1544.93 3029.88 1542.76 C 3030.05 1540.59 3031.39 1538.69 3033.38 1537.81 z"/>
<path transform="translate(0,0)" fill="rgb(172,208,246)" d="M 3001.07 1537.09 C 3002.88 1536.05 3005.12 1536.16 3006.82 1537.37 C 3008.51 1538.58 3009.34 1540.67 3008.95 1542.71 C 3008.55 1544.76 3007 1546.38 3004.97 1546.87 C 3002.4 1547.49 2999.76 1546.13 2998.78 1543.67 C 2997.8 1541.21 2998.78 1538.41 3001.07 1537.09 z"/>
<path transform="translate(0,0)" fill="rgb(30,39,49)" d="M 2026.88 2139.95 C 2046.25 2140.76 2056.5 2139.79 2075.16 2135.36 C 2090.33 2141.04 2095.9 2144.68 2108.84 2155.05 C 2071.94 2188.8 2042.26 2194.79 1994.3 2176.72 C 1988.84 2174.66 1981.46 2170.24 1975.94 2169.57 L 1976.17 2167.56 C 1997.9 2150.93 1993.87 2140.14 2026.88 2139.95 z"/>
</svg>
