<svg version="1.1" xmlns="http://www.w3.org/2000/svg" style="display: block;" viewBox="0 0 2048 1143" width="1376" height="768" preserveAspectRatio="none">
<defs>
	<linearGradient id="Gradient1" gradientUnits="userSpaceOnUse" x1="1859.48" y1="965.75" x2="1868.02" y2="956.443">
		<stop class="stop0" offset="0" stop-opacity="1" stop-color="rgb(0,0,1)"/>
		<stop class="stop1" offset="1" stop-opacity="1" stop-color="rgb(5,19,32)"/>
	</linearGradient>
</defs>
<path transform="translate(0,0)" fill="rgb(57,73,88)" d="M 0 0 L 2048 0 L 2048 1143 L 0 1143 L 0 0 z"/>
<path transform="translate(0,0)" fill="rgb(191,221,249)" d="M 642.473 215.881 C 699.993 144.386 773 102.467 864.9 92.5417 C 949.047 84.3002 1033.09 109.24 1099.12 162.048 C 1114.16 174.202 1136.11 195.164 1147.87 210.818 C 1149.37 214.078 1149.07 217.533 1149.09 221.162 C 1148.86 232.186 1148.28 242.751 1148.93 253.763 C 1150.2 275.455 1175.89 263.059 1184.39 267.817 L 1185.41 268.664 C 1197.04 292.739 1205.21 314.503 1210.94 340.945 C 1286.48 314.871 1350.43 319.15 1422.97 352.709 C 1421.98 347.398 1414.19 339.404 1417.98 334.366 C 1421.01 330.333 1430.39 322.356 1434.63 319.366 C 1440.4 323.143 1443.62 325.429 1448.95 329.862 C 1453.54 327.818 1459.39 325.005 1463.99 323.279 C 1464.44 319.689 1464.9 309.908 1467.97 307.518 C 1473.04 303.577 1490.14 303.085 1494.7 308.167 C 1496.55 310.233 1497.52 319.113 1497.97 322.583 C 1503.12 324.796 1507.37 326.59 1512.32 329.31 C 1517.93 325.219 1520.81 322.959 1527.15 319.971 C 1540.8 329.264 1551.07 335.815 1538.52 351.631 C 1538.01 352.273 1537.49 352.914 1536.98 353.551 L 1542.55 367.681 C 1548.64 368.437 1553.83 368.034 1558.06 373.398 C 1564.39 381.421 1563.46 392.738 1555.56 399.377 C 1553.15 401.403 1545.93 402.134 1542.63 402.528 C 1540.86 407.381 1539.09 412.606 1536.86 417.236 C 1550.66 434.899 1544.8 435.811 1529.69 449.833 C 1541.28 469.29 1560.73 507.823 1562.07 530.715 C 1568.38 536.076 1574.76 541.048 1581.28 546.151 L 1604.96 546.674 C 1615.24 502.124 1657.09 474.396 1702.11 485.137 C 1722.4 490.025 1739.88 502.823 1750.67 520.679 C 1761.83 539.211 1765.13 561.43 1759.84 582.405 C 1755.09 602.499 1742.5 619.858 1724.87 630.618 C 1716.63 635.605 1706.78 639.142 1697.39 641.213 C 1712.3 653.755 1735.67 671.78 1748.19 685.868 C 1755.29 693.854 1754.09 727.302 1754.1 739.44 L 1754.12 796.293 C 1754.12 810.567 1755.09 855.691 1753.56 867.222 L 1755.09 872.06 C 1753.72 875.7 1763.92 907.406 1765.61 914.752 C 1772.16 915.681 1778.52 917.627 1784.46 920.519 L 1790.04 923.691 C 1795.34 928.205 1798.52 931.162 1802.68 936.974 C 1803.64 938.644 1805.52 942.167 1806.59 943.546 C 1807.54 945.476 1808.49 947.143 1809.56 949.009 C 1812.44 949.381 1822.26 942.234 1828.63 941.381 C 1837.02 940.258 1840.22 940.784 1848.32 941.935 L 1850.53 943.379 L 1854.8 944.47 C 1869 953.452 1873.32 960.496 1877.53 976.196 C 1877.83 978.875 1878.13 979.563 1877.1 981.931 C 1918.57 975.977 1943.12 999.381 1940.4 1040.95 L 1716.41 1041.05 C 1678.94 1041.28 1641.46 1041.26 1603.99 1040.99 C 1594.33 1040.99 1562.49 1040.37 1554.43 1042.05 L 1553.94 1045.03 L 1552.53 1045.88 C 1488.94 1047.09 1422.5 1046.17 1358.66 1046.19 L 1291.31 1046.2 C 1251.36 1046.2 1219.45 1052.1 1209.28 1003.02 C 1208.15 1000.75 1208.63 913.076 1208.61 904.232 C 1187.94 906.348 1137.82 905.045 1114.58 905.041 L 933.066 905.077 C 924.102 905.083 876.966 904.342 871.753 906.569 C 906.508 922.346 840.527 943.551 829.741 947.116 C 814.418 952.18 783.984 968.303 775.644 947.214 C 771.504 936.744 772.036 926.636 765.4 916.595 C 760.46 913.859 758.799 916.202 755.158 915.481 C 750.364 914.532 740.041 900.938 736.705 896.953 C 733.884 898.384 671.148 898.696 666.267 897.075 C 662.214 919.504 653.706 946.967 647.375 969.306 C 647.923 969.779 648.361 970.422 649.018 970.725 C 651.573 971.906 702.796 972.654 709.19 972.901 C 768.646 975.204 942.074 985.289 986.007 1015.81 C 990.639 1019.03 993.432 1022.92 996.307 1027.68 C 993.672 1031.23 991.069 1034.76 987.482 1037.42 C 962.741 1055.75 906.424 1062.62 875.582 1067.18 C 783.336 1080.81 688.863 1083.58 595.718 1083.16 C 501.79 1082.74 408.624 1079.19 315.552 1065.51 C 289.063 1061.62 234.5 1053.28 214.057 1037.71 C 211.083 1035.45 208.199 1032.41 207.646 1028.55 C 207.168 1025.22 208.62 1022.2 210.706 1019.7 C 227.894 999.123 335.611 984.226 365.714 981.98 C 366.258 981.939 366.802 981.903 367.346 981.873 C 367.443 971.36 367.381 960.845 367.159 950.333 C 366.044 941.83 366.63 915.099 366.66 905.15 C 359.866 904.955 326.866 905.387 323.825 902.621 C 332.065 900.723 358.369 902.929 364.701 899.506 L 360.843 898.241 C 342.61 896.84 329.984 896.412 311.958 891.505 C 267.678 879.1 230.162 849.572 207.702 809.446 C 185.399 769.38 177.785 722.785 186.173 677.704 C 188.653 664.608 193.503 650.756 197.123 637.736 L 201.427 629.573 L 213.528 607.257 L 216.885 601.198 C 219.177 599.534 238.44 575.658 241.718 571.554 C 243.408 569.557 246.019 567.464 248.039 565.712 C 253.93 560.379 261.94 554.467 268.349 549.682 L 273.109 546.85 C 295.907 532.96 316.128 524.689 342.382 519.895 C 320.664 474.196 309.693 443.022 312.149 391.106 C 303.042 387.816 259.367 392.408 246.875 390.887 C 238.282 391.734 221.139 388.877 221.143 376.599 C 221.16 320.961 219.291 262.956 221.058 207.409 C 224.62 201.833 226.972 197.564 234.178 196.699 C 245.401 195.352 256.993 195.864 268.312 195.882 L 329.381 196.01 C 336.573 202.291 370.627 236.215 375.123 242.368 C 402.557 217.427 413.792 209.572 447.1 194.34 L 448.056 193.837 C 505.104 173.828 560.296 174.257 615.498 200.727 C 624.802 205.201 633.812 210.263 642.473 215.881 z"/>
<path transform="translate(0,0)" fill="rgb(0,0,0)" d="M 1604.96 546.674 C 1615.24 502.124 1657.09 474.396 1702.11 485.137 C 1722.4 490.025 1739.88 502.823 1750.67 520.679 C 1761.83 539.211 1765.13 561.43 1759.84 582.405 C 1755.09 602.499 1742.5 619.858 1724.87 630.618 C 1716.63 635.605 1706.78 639.142 1697.39 641.213 C 1712.3 653.755 1735.67 671.78 1748.19 685.868 C 1755.29 693.854 1754.09 727.302 1754.1 739.44 L 1754.12 796.293 C 1754.12 810.567 1755.09 855.691 1753.56 867.222 L 1755.09 872.06 C 1753.72 875.7 1763.92 907.406 1765.61 914.752 C 1772.16 915.681 1778.52 917.627 1784.46 920.519 L 1790.04 923.691 C 1795.34 928.205 1798.52 931.162 1802.68 936.974 C 1803.64 938.644 1805.52 942.167 1806.59 943.546 C 1807.54 945.476 1808.49 947.143 1809.56 949.009 C 1812.44 949.381 1822.26 942.234 1828.63 941.381 C 1837.02 940.258 1840.22 940.784 1848.32 941.935 L 1850.53 943.379 L 1854.8 944.47 C 1869 953.452 1873.32 960.496 1877.53 976.196 C 1877.83 978.875 1878.13 979.563 1877.1 981.931 C 1918.57 975.977 1943.12 999.381 1940.4 1040.95 L 1716.41 1041.05 C 1678.94 1041.28 1641.46 1041.26 1603.99 1040.99 C 1594.33 1040.99 1562.49 1040.37 1554.43 1042.05 L 1553.94 1045.03 L 1552.53 1045.88 C 1488.94 1047.09 1422.5 1046.17 1358.66 1046.19 L 1291.31 1046.2 C 1251.36 1046.2 1219.45 1052.1 1209.28 1003.02 C 1210.22 999.507 1209.91 974.971 1209.9 970.056 C 1209.75 945.668 1209.73 921.279 1209.83 896.89 C 1210.93 850.875 1208.41 803.677 1209.46 757.535 C 1209.73 745.583 1207.25 695.392 1213.64 688.291 C 1232.29 667.577 1259.4 648.267 1281.09 629.801 C 1280.96 611.992 1280.22 593.422 1281 575.813 C 1282.35 545.291 1303.7 545.34 1327.41 546.117 C 1345.76 546.719 1364.62 546.916 1382.64 546.602 C 1402.75 529.952 1422.88 512.876 1443.48 496.793 C 1457.57 485.783 1470.13 483.945 1487.34 483.784 C 1520.34 489.042 1527.36 504.798 1552.47 522.828 C 1555.93 525.977 1558.31 527.927 1562.07 530.715 C 1568.38 536.076 1574.76 541.048 1581.28 546.151 L 1604.96 546.674 z"/>
<path transform="translate(0,0)" fill="rgb(99,131,158)" d="M 1708.91 972.094 C 1714.16 949.776 1718.2 930.252 1743.44 921.908 C 1756.03 917.798 1769.75 918.876 1781.55 924.903 C 1796.44 932.699 1802.03 944.331 1806.83 959.248 C 1820.13 949.063 1824.74 945.218 1841.86 946.301 C 1846.86 946.473 1847.36 946.876 1850.53 943.379 L 1854.8 944.47 C 1869 953.452 1873.32 960.496 1877.53 976.196 C 1877.83 978.875 1878.13 979.563 1877.1 981.931 C 1918.57 975.977 1943.12 999.381 1940.4 1040.95 L 1716.41 1041.05 C 1678.94 1041.28 1641.46 1041.26 1603.99 1040.99 C 1594.33 1040.99 1562.49 1040.37 1554.43 1042.05 C 1550.35 1005.87 1580.8 982.52 1615.37 988.528 C 1621.5 989.593 1626.29 991.461 1632.08 993.621 C 1634.52 981.03 1637.09 971.07 1647.19 961.914 C 1654.72 954.967 1664.75 951.388 1674.97 952.002 C 1691.29 952.911 1698.98 960.995 1708.91 972.094 z"/>
<path transform="translate(0,0)" fill="rgb(122,160,195)" d="M 1813.62 997.305 C 1827.89 981.122 1847.78 966.956 1870.62 971.671 C 1871.34 975.133 1871.73 979.395 1874.04 981.729 L 1877.1 981.931 C 1918.57 975.977 1943.12 999.381 1940.4 1040.95 L 1716.41 1041.05 C 1718.26 1029.86 1721.89 1018.77 1728.54 1009.5 C 1737.96 996.199 1752.36 987.28 1768.47 984.78 C 1785.89 982.065 1799.78 987.249 1813.62 997.305 z"/>
<path transform="translate(0,0)" fill="url(#Gradient1)" d="M 1850.53 943.379 L 1854.8 944.47 C 1869 953.452 1873.32 960.496 1877.53 976.196 C 1877.83 978.875 1878.13 979.563 1877.1 981.931 L 1874.04 981.729 C 1871.73 979.395 1871.34 975.133 1870.62 971.671 C 1866.01 956.479 1857.11 949.325 1841.86 946.301 C 1846.86 946.473 1847.36 946.876 1850.53 943.379 z"/>
<path transform="translate(0,0)" fill="rgb(99,131,158)" d="M 1683 946.946 C 1670.01 922.223 1656.84 891.755 1659.62 863.123 C 1661.73 841.452 1678.67 823.428 1701.48 826.685 C 1719.83 829.303 1728.9 842.363 1739.27 856.071 C 1746.96 860.549 1745.97 868.823 1752.64 872.447 C 1753.61 870.628 1753.47 869.282 1753.56 867.222 L 1755.09 872.06 C 1753.72 875.7 1763.92 907.406 1765.61 914.752 C 1763.22 915.125 1759.5 915.012 1756.97 915.02 C 1744.31 915.093 1738.19 918.166 1727.54 924.34 L 1722.23 929.05 C 1712.09 941.601 1709.7 945.379 1706.25 961.029 C 1697.84 953.117 1693.36 951.505 1683 946.946 z"/>
<path transform="translate(0,0)" fill="rgb(148,188,226)" d="M 1722.23 929.05 C 1713.32 914.711 1708.51 887.01 1697.32 872.324 C 1695.87 870.422 1694.53 867.609 1693.76 865.32 C 1694.4 861.613 1693.69 862.769 1696.14 860.613 L 1698.32 861.139 C 1708.86 874.109 1721.06 907.612 1727.54 924.34 L 1722.23 929.05 z"/>
<path transform="translate(0,0)" fill="rgb(42,59,73)" d="M 1739.27 856.071 C 1746.96 860.549 1745.97 868.823 1752.64 872.447 C 1753.61 870.628 1753.47 869.282 1753.56 867.222 L 1755.09 872.06 C 1753.72 875.7 1763.92 907.406 1765.61 914.752 C 1763.22 915.125 1759.5 915.012 1756.97 915.02 C 1758.19 914.295 1758.08 914.13 1759.03 912.943 C 1758.94 899.026 1745.69 868.679 1739.27 856.071 z"/>
<path transform="translate(0,0)" fill="rgb(254,254,254)" d="M 1288.16 744.495 L 1288.23 630.873 C 1288.23 617.299 1285.57 568.355 1293.86 560.001 C 1296.97 556.862 1301.06 554.872 1305.45 554.354 C 1313.81 553.337 1329.29 553.822 1338.41 553.847 L 1395.45 553.902 L 1589.05 553.957 L 1604.19 553.881 C 1603.39 574.569 1604.98 588.538 1616.99 606.33 C 1631.3 627.532 1649.53 638.2 1674.77 641.421 C 1674.59 666.961 1676.23 706.802 1674.68 730.746 L 1674.97 745.11 C 1656.85 757.668 1636.91 773.214 1619.07 786.561 L 1528.8 854.058 C 1499.33 828.973 1464.52 829.895 1434.83 853.877 C 1429.48 850.259 1423.37 845.748 1418.24 841.767 C 1375.75 808.802 1330.15 777.895 1288.16 744.495 z"/>
<path transform="translate(0,0)" fill="rgb(191,221,249)" d="M 1589.05 553.957 L 1604.19 553.881 C 1603.39 574.569 1604.98 588.538 1616.99 606.33 C 1631.3 627.532 1649.53 638.2 1674.77 641.421 C 1674.59 666.961 1676.23 706.802 1674.68 730.746 C 1672.97 728.403 1673.65 664.844 1673.66 657.149 C 1614.16 649.544 1588.73 611.842 1589.05 553.957 z"/>
<path transform="translate(0,0)" fill="rgb(57,73,88)" d="M 1524.95 634.391 C 1534.08 634.476 1545.15 648.878 1552.48 656.223 C 1560.31 649.291 1566.15 640.885 1575.06 635.157 C 1578.29 634.65 1578.73 634.571 1581.57 636.143 C 1588.48 645.493 1569.24 658.91 1562.36 665.662 C 1568.76 673.288 1581.9 682.072 1583.79 691.006 C 1582.96 695.262 1583.31 693.94 1580.34 697.475 C 1569.55 697.143 1559.71 683.304 1552.54 675.404 C 1546.82 681.25 1537.12 693.065 1530.41 696.914 C 1527.17 697.328 1526.73 697.39 1523.85 695.887 C 1516.9 686.793 1535.78 672.885 1542.47 666.478 C 1536.27 659.259 1524.91 651.023 1521.95 642.329 C 1521.06 639.714 1523.51 636.755 1524.95 634.391 z"/>
<path transform="translate(0,0)" fill="rgb(57,73,88)" d="M 1383.21 634.458 C 1392.22 634.463 1404.3 649.673 1410.74 656.215 C 1417.89 649.914 1425.43 639.484 1433.56 635.07 C 1436.67 634.787 1436.99 634.592 1439.57 636.061 C 1446.35 645.43 1427.18 659.09 1420.35 665.661 C 1426.41 672.342 1440.24 682.423 1441.77 690.998 C 1442.21 693.437 1440.06 695.747 1438.52 697.588 C 1428.32 697.109 1418.11 683.514 1410.79 675.642 C 1403.29 682.676 1393.2 698.379 1382.73 696.432 C 1379.78 693.585 1380.6 694.994 1379.53 691.133 C 1380.36 684.668 1395.29 671.666 1400.62 666.188 C 1394.14 659.357 1381.89 649.428 1379.69 641.48 C 1380.27 637.314 1380.4 638.227 1383.21 634.458 z"/>
<path transform="translate(0,0)" fill="rgb(57,73,88)" d="M 1412.74 744.049 C 1456.01 743.96 1499.38 743.861 1542.66 743.878 C 1548.79 743.88 1551.73 743.249 1554.59 749.152 C 1554.54 752.752 1553.72 753.581 1551.76 756.47 C 1539.12 757.707 1499.75 756.715 1486.02 756.72 L 1441.54 756.723 C 1432.81 756.724 1421.58 757.192 1413.24 755.987 C 1410.07 753.747 1410.98 754.972 1409.7 751.422 C 1409.98 747.512 1410.41 747.037 1412.74 744.049 z"/>
<path transform="translate(0,0)" fill="rgb(191,221,249)" d="M 1256.99 1007.58 L 1387.02 902.353 L 1424.99 871.697 C 1444.61 855.83 1460.44 840.096 1488.33 843.798 C 1514.52 847.274 1537.01 870.602 1557.33 887.078 L 1644.34 957.33 C 1633.41 968.015 1632.11 971.729 1628.23 986.562 C 1597.95 977.599 1566.9 982.883 1552.9 1014.32 C 1549.08 1024.49 1549.03 1028.3 1548.74 1038.87 L 1351 1038.83 L 1290.44 1038.95 C 1275.27 1038.98 1241.92 1041.77 1231.7 1029.24 L 1231.86 1027.89 C 1239.97 1020.86 1248.55 1014.23 1256.99 1007.58 z"/>
<path transform="translate(0,0)" fill="rgb(99,131,158)" d="M 1548.74 1038.87 L 1351 1038.83 L 1290.44 1038.95 C 1275.27 1038.98 1241.92 1041.77 1231.7 1029.24 L 1231.86 1027.89 C 1239.97 1020.86 1248.55 1014.23 1256.99 1007.58 C 1260.89 1009.92 1268.62 1013.51 1273.18 1013.62 C 1366.27 1015.91 1459.8 1012.88 1552.9 1014.32 C 1549.08 1024.49 1549.03 1028.3 1548.74 1038.87 z"/>
<path transform="translate(0,0)" fill="rgb(191,221,249)" d="M 1217.1 701.247 C 1225.48 707.145 1233.07 712.963 1241.15 719.226 L 1375.64 819.56 C 1392.43 832.189 1412.02 845.974 1428.08 858.959 L 1304.74 959.206 C 1287.57 973.093 1267.85 988.264 1251.26 1002.39 C 1246.04 1007.57 1230.86 1019.13 1225.05 1023.35 C 1214.12 1004.23 1216.9 985.369 1216.92 963.957 L 1217.01 901.118 L 1217.1 701.247 z"/>
<path transform="translate(0,0)" fill="rgb(99,131,158)" d="M 1217.1 701.247 C 1225.48 707.145 1233.07 712.963 1241.15 719.226 C 1239.97 731.72 1240.71 753.777 1240.73 767.386 L 1240.82 857.718 L 1240.7 936.619 C 1240.68 958.487 1236.87 984.873 1251.26 1002.39 C 1246.04 1007.57 1230.86 1019.13 1225.05 1023.35 C 1214.12 1004.23 1216.9 985.369 1216.92 963.957 L 1217.01 901.118 L 1217.1 701.247 z"/>
<path transform="translate(0,0)" fill="rgb(191,221,249)" d="M 1745.95 701.068 C 1746.44 753.343 1746.5 805.621 1746.13 857.897 C 1736.68 842.638 1734.34 840.496 1721.81 828.963 C 1697.58 814.51 1666.8 821.013 1657.16 849.279 C 1646.32 881.027 1663.3 918.059 1676.63 946.696 C 1664.83 947.006 1661.04 947.604 1650.52 952.686 C 1641.89 944.544 1623.26 930.567 1613.28 922.529 C 1587.08 901.6 1561.06 880.431 1535.24 859.027 C 1552.97 844.097 1581.15 824.229 1600.25 809.908 L 1721.74 719.037 C 1729.75 712.969 1737.82 706.98 1745.95 701.068 z"/>
<path transform="translate(0,0)" fill="rgb(99,131,158)" d="M 1745.95 701.068 C 1746.44 753.343 1746.5 805.621 1746.13 857.897 C 1736.68 842.638 1734.34 840.496 1721.81 828.963 C 1723.4 826.074 1723.26 722.439 1721.74 719.037 C 1729.75 712.969 1737.82 706.98 1745.95 701.068 z"/>
<path transform="translate(0,0)" fill="rgb(235,95,93)" d="M 1679.7 490.717 C 1719.39 488.868 1753.07 519.533 1754.95 559.225 C 1756.82 598.916 1726.17 632.616 1686.48 634.511 C 1646.76 636.408 1613.03 605.732 1611.15 566.008 C 1609.28 526.284 1639.97 492.568 1679.7 490.717 z"/>
<path transform="translate(0,0)" fill="rgb(254,254,254)" d="M 1681.47 524.301 C 1687.39 524.536 1692.66 525.129 1697.45 529.082 C 1713 541.918 1712.8 578.824 1700.87 593.838 C 1696.37 599.512 1691.53 600.896 1684.56 601.573 C 1661.34 603.005 1655.79 580.678 1656.49 561.882 C 1657.19 543.329 1660.29 527.282 1681.47 524.301 z"/>
<path transform="translate(0,0)" fill="rgb(235,95,93)" d="M 1681.21 535.797 C 1698.99 537.873 1694.68 566.379 1693.03 578.981 C 1692.31 584.454 1689.63 587.531 1685.12 590.402 C 1666.9 588.304 1671.28 561.129 1672.85 547.992 C 1673.56 542.078 1676.37 538.918 1681.21 535.797 z"/>
<path transform="translate(0,0)" fill="rgb(99,131,158)" d="M 1479.12 491.319 C 1501.29 490.111 1515.34 501.994 1531.26 515.305 C 1543.68 525.69 1556.59 535.613 1568.48 546.622 C 1542.66 547.291 1514.27 546.738 1488.25 546.749 L 1394.52 546.852 C 1417.15 527.442 1449.71 494.94 1479.12 491.319 z"/>
<path transform="translate(0,0)" fill="rgb(99,131,158)" d="M 1682.67 641.371 C 1691.78 645.476 1738.4 684.398 1744.23 693.337 C 1735.09 699.747 1726.1 706.366 1717.26 713.19 C 1706.95 721.564 1693.08 731.297 1682.21 739.404 C 1682.82 706.863 1681.69 673.917 1682.67 641.371 z"/>
<path transform="translate(0,0)" fill="rgb(99,131,158)" d="M 1279.77 640.852 C 1282.01 643.108 1281.05 729.374 1281.05 740.164 C 1270.35 731.064 1257.97 722.213 1246.64 713.779 C 1237.69 707.247 1227.81 700.328 1219.35 693.302 C 1226.21 683.082 1267.51 650.963 1279.77 640.852 z"/>
<path transform="translate(0,0)" fill="rgb(0,0,0)" d="M 422.965 483.622 C 421.699 441.28 421.008 369.047 444.966 331.77 C 451.246 321.999 471.532 317.948 479.395 308.209 C 486.742 300.169 499.348 299.317 509.066 298.633 C 531.686 297.041 565.232 311.824 572.729 334.438 C 588.534 382.109 580.156 451.711 576.297 500.724 C 587.046 517.525 594.631 541.893 601.122 561.03 C 616.902 558.811 749.202 558.596 759.779 561.874 C 762.187 564.002 763.479 565.735 763.797 569.017 C 764.304 574.262 726.77 691.583 723.041 698.299 C 716.547 703.026 702.317 701.246 693.916 700.978 C 736.197 738.63 766.469 812.379 792.727 862.331 C 796.415 869.346 800.226 878.352 802.44 885.948 C 802.755 887.252 801.042 889.297 800.216 890.538 L 799.03 892.008 C 799.415 895.011 799.817 895.336 801.471 897.991 C 808.176 905.142 816.114 906.03 825.874 906.143 C 840.533 906.312 857.232 907.159 871.753 906.569 C 906.508 922.346 840.527 943.551 829.741 947.116 C 814.418 952.18 783.984 968.303 775.644 947.214 C 771.504 936.744 772.036 926.636 765.4 916.595 C 760.46 913.859 758.799 916.202 755.158 915.481 C 750.364 914.532 740.041 900.938 736.705 896.953 C 733.884 898.384 671.148 898.696 666.267 897.075 C 662.214 919.504 653.706 946.967 647.375 969.306 C 647.923 969.779 648.361 970.422 649.018 970.725 C 651.573 971.906 702.796 972.654 709.19 972.901 C 768.646 975.204 942.074 985.289 986.007 1015.81 C 990.639 1019.03 993.432 1022.92 996.307 1027.68 C 993.672 1031.23 991.069 1034.76 987.482 1037.42 C 962.741 1055.75 906.424 1062.62 875.582 1067.18 C 783.336 1080.81 688.863 1083.58 595.718 1083.16 C 501.79 1082.74 408.624 1079.19 315.552 1065.51 C 289.063 1061.62 234.5 1053.28 214.057 1037.71 C 211.083 1035.45 208.199 1032.41 207.646 1028.55 C 207.168 1025.22 208.62 1022.2 210.706 1019.7 C 227.894 999.123 335.611 984.226 365.714 981.98 C 366.258 981.939 366.802 981.903 367.346 981.873 C 367.443 971.36 367.381 960.845 367.159 950.333 C 366.044 941.83 366.63 915.099 366.66 905.15 C 359.866 904.955 326.866 905.387 323.825 902.621 C 332.065 900.723 358.369 902.929 364.701 899.506 L 360.843 898.241 L 365.612 897.675 C 368.039 895.283 367.265 894.544 367.515 890.249 C 366.936 886.76 367.213 881.165 367.273 877.438 C 367.128 857.824 363.322 820.941 376.987 808.468 C 390.865 795.799 407.611 797.554 424.9 797.347 C 388.084 769.137 402.398 718.44 418.544 682.823 C 383.037 677.942 348.039 675.693 356.211 628.988 C 362.518 592.946 389.51 508.769 418.32 486.988 C 419.848 485.838 421.397 484.716 422.965 483.622 z"/>
<path transform="translate(0,0)" fill="rgb(42,59,73)" d="M 647.375 969.306 C 647.923 969.779 648.361 970.422 649.018 970.725 C 651.573 971.906 702.796 972.654 709.19 972.901 C 768.646 975.204 942.074 985.289 986.007 1015.81 C 990.639 1019.03 993.432 1022.92 996.307 1027.68 C 993.672 1031.23 991.069 1034.76 987.482 1037.42 C 962.741 1055.75 906.424 1062.62 875.582 1067.18 C 783.336 1080.81 688.863 1083.58 595.718 1083.16 C 501.79 1082.74 408.624 1079.19 315.552 1065.51 C 289.063 1061.62 234.5 1053.28 214.057 1037.71 C 211.083 1035.45 208.199 1032.41 207.646 1028.55 C 207.168 1025.22 208.62 1022.2 210.706 1019.7 C 227.894 999.123 335.611 984.226 365.714 981.98 C 366.258 981.939 366.802 981.903 367.346 981.873 C 367.018 996.615 366.19 1011.07 376.793 1022.84 C 380.986 1028.01 390.8 1032.84 397.519 1033.11 C 456.319 1035.53 516.987 1032.25 575.768 1033.99 C 588.116 1043.98 653.686 1073.16 668.877 1066.32 C 703.747 1050.61 610.578 1011.48 630.62 992.544 C 630.759 992.412 640.149 989.659 641.047 989.395 C 643.519 983.483 645.557 975.582 647.375 969.306 z"/>
<path transform="translate(0,0)" fill="rgb(191,221,249)" d="M 668.511 889.559 C 673.36 867.334 677.4 847.555 680.565 825.058 C 692.511 842.039 715.843 874.87 730.267 889.771 L 736.705 896.953 C 733.884 898.384 671.148 898.696 666.267 897.075 L 668.511 889.559 z"/>
<path transform="translate(0,0)" fill="rgb(254,254,254)" d="M 668.511 889.559 C 688.784 890.039 709.991 890.658 730.267 889.771 L 736.705 896.953 C 733.884 898.384 671.148 898.696 666.267 897.075 L 668.511 889.559 z"/>
<path transform="translate(0,0)" fill="rgb(42,59,73)" d="M 367.273 877.438 C 368.463 883.035 367.933 944.205 367.159 950.333 C 366.044 941.83 366.63 915.099 366.66 905.15 C 359.866 904.955 326.866 905.387 323.825 902.621 C 332.065 900.723 358.369 902.929 364.701 899.506 L 360.843 898.241 L 365.612 897.675 C 368.039 895.283 367.265 894.544 367.515 890.249 C 366.936 886.76 367.213 881.165 367.273 877.438 z"/>
<path transform="translate(0,0)" fill="rgb(99,131,158)" d="M 406.448 802.984 C 411.868 803.032 427.967 802.306 432.537 803.365 C 446.428 807.486 458.259 809.178 472.42 811.135 C 492.438 813.901 513.27 805.137 530.995 805.847 C 552.553 806.71 579.371 811.901 601.377 814.21 C 585.715 871.795 580.36 923.131 579.376 982.783 L 588.557 986.275 C 585.842 1000.75 578.049 1008.88 574.462 1028.72 L 456.542 1028.79 C 447.508 1028.8 409.919 1029.36 402.694 1028.14 C 390.4 1028.36 374.477 1018.14 373.821 1006.85 C 370.75 954.454 373.362 901.319 372.437 848.785 C 371.986 823.231 375.163 802.807 406.448 802.984 z"/>
<path transform="translate(0,0)" fill="rgb(78,112,139)" d="M 406.448 802.984 C 411.868 803.032 427.967 802.306 432.537 803.365 C 446.428 807.486 458.259 809.178 472.42 811.135 C 492.438 813.901 513.27 805.137 530.995 805.847 C 552.553 806.71 579.371 811.901 601.377 814.21 C 585.715 871.795 580.36 923.131 579.376 982.783 L 588.557 986.275 C 585.842 1000.75 578.049 1008.88 574.462 1028.72 L 456.542 1028.79 C 447.508 1028.8 409.919 1029.36 402.694 1028.14 C 412.123 1027.01 438.896 1027.67 449.169 1027.67 L 541.318 1027.66 C 553.225 994.693 550.671 974.337 552.766 940.144 C 554.256 915.824 559.693 892.978 559.758 867.888 C 559.885 818.814 501.475 841.124 471.117 833.934 C 448.761 829.326 421.181 822.502 406.448 802.984 z"/>
<path transform="translate(0,0)" fill="rgb(57,73,88)" d="M 423.766 683.976 C 436.877 684.78 469.556 685.076 479.606 687.07 C 481.496 689.317 481.404 693.606 481.715 696.81 L 484.18 699.828 C 480.709 704.213 474.008 701.319 469.872 704.542 L 470.702 706.806 C 474.814 708.576 514.707 702.511 523.591 702.318 C 577.096 701.157 631.306 700.337 684.824 701.238 C 693.33 707.267 702.435 715.09 708.595 723.421 C 732.321 755.511 787.662 851.721 796.875 886.966 C 783.51 899.887 774.693 905.27 756.768 910.577 C 732.823 888.924 699.415 844.201 681.899 816.66 C 682.973 796.552 684.576 775.651 664.044 763.884 C 647.783 754.565 635.331 764.772 619.779 770.081 C 613.195 772.328 606.518 775.583 599.905 777.869 C 522.218 810.482 366.38 842.958 417.229 699.72 L 423.766 683.976 z"/>
<path transform="translate(0,0)" fill="rgb(42,59,73)" d="M 423.766 683.976 C 436.877 684.78 469.556 685.076 479.606 687.07 C 481.496 689.317 481.404 693.606 481.715 696.81 C 477.318 699.869 454.245 698.12 447.288 698.163 C 437.253 698.315 427.227 698.834 417.229 699.72 L 423.766 683.976 z"/>
<path transform="translate(0,0)" fill="rgb(148,188,226)" d="M 369.151 665.305 C 342.119 633.954 393.957 518.907 419.216 492.557 C 427.83 483.57 459.119 474.155 471.848 472.028 C 484.102 486.757 529.536 544.112 528.096 488.539 C 527.961 483.984 527.783 479.429 527.563 474.877 C 551.964 483.545 566.781 490.104 578.776 515.415 C 586.377 531.453 591.438 547.5 596.729 564.358 C 586.814 586.711 576.273 624.366 568.07 648.758 L 563.62 636.217 L 563.322 635.189 C 556.626 611.435 594.005 580.033 565.593 539.632 L 563.93 539.282 C 560.049 543.379 572.969 568.351 571.607 578.621 C 569.609 593.69 565.076 600.797 559.559 614.517 C 555.565 627.669 553.45 645.838 552.577 659.536 C 541.153 653.521 537.245 652.039 524.115 653.419 C 501.443 658.192 495.746 657.61 473.729 649.304 C 461.512 644.695 447.29 640.154 434.741 635.914 C 434.064 627.752 433.498 619.58 433.042 611.403 C 431.545 600.417 431.745 599.467 436.366 589.781 C 438.152 585.293 440.87 579.771 442.919 575.285 C 444.393 571.492 447.55 564.461 447.635 560.747 L 446.038 559.485 C 441.973 561.824 418.567 620.004 413.061 629.558 C 387.474 630.397 375.825 641.088 369.151 665.305 z"/>
<path transform="translate(0,0)" fill="rgb(122,160,195)" d="M 436.366 589.781 C 438.152 585.293 440.87 579.771 442.919 575.285 L 443.133 576.135 C 448.228 596.868 444.12 624.368 466.963 638.274 C 476.718 644.213 491.852 648.112 503.138 650.034 C 509.785 651.167 518.42 650.486 524.115 653.419 C 501.443 658.192 495.746 657.61 473.729 649.304 C 461.512 644.695 447.29 640.154 434.741 635.914 C 434.064 627.752 433.498 619.58 433.042 611.403 C 431.545 600.417 431.745 599.467 436.366 589.781 z"/>
<path transform="translate(0,0)" fill="rgb(148,188,226)" d="M 436.366 589.781 C 438.967 591.619 439.743 591.541 440.002 595.143 C 440.327 599.681 441.922 610.615 438.841 613.977 L 433.042 611.403 C 431.545 600.417 431.745 599.467 436.366 589.781 z"/>
<path transform="translate(0,0)" fill="rgb(57,73,88)" d="M 699.426 565.234 C 709.379 565.127 751.58 563.701 757.848 566.805 C 759.904 574.611 728.101 667.446 722.637 682.688 C 693.091 682.441 644.121 684.457 616.034 681.967 C 603.052 682.937 576.692 682.163 562.56 682.312 C 570.477 659.651 577.363 635.212 585.331 612.442 C 589.377 600.878 595.524 576.753 601.547 567.369 C 606.551 563.675 687.162 565.225 699.426 565.234 z"/>
<path transform="translate(0,0)" fill="rgb(42,59,73)" d="M 699.426 565.234 C 709.379 565.127 751.58 563.701 757.848 566.805 C 759.904 574.611 728.101 667.446 722.637 682.688 C 693.091 682.441 644.121 684.457 616.034 681.967 C 620.641 678.721 647.807 676.607 656.301 674.262 C 688.293 665.429 706.61 652.605 724.089 624.415 C 729.444 615.78 733.774 609.813 738.392 600.242 C 742.99 590.711 747.908 575.29 753.098 566.958 L 753.602 566.164 C 743.437 566.106 708.083 567.338 699.426 565.234 z"/>
<path transform="translate(0,0)" fill="rgb(148,188,226)" d="M 663.061 614.061 C 681.244 612.067 683.821 629.272 669.181 638.453 C 651.993 639.816 650.928 623.389 663.061 614.061 z"/>
<path transform="translate(0,0)" fill="rgb(42,59,73)" d="M 645.754 764.948 C 657.797 763.572 674.882 775.385 675.951 787.238 C 680.766 840.577 659.591 898.645 647.38 950.412 C 644.718 961.695 640.131 977.059 635.373 985.833 C 613.688 987.574 605.591 985.913 584.912 979.301 L 585.145 958.774 C 587.599 903.47 593.767 863.347 607.707 810.156 C 589.827 806.503 561 803.719 542.736 802.553 C 572.748 795.414 617.498 776.754 645.754 764.948 z"/>
<path transform="translate(0,0)" fill="rgb(248,186,160)" d="M 503.614 348.299 C 523.254 362.534 540.346 370.049 564.05 374.591 C 562.033 403.715 562.096 456.575 519.771 456.902 C 509.293 456.983 500.861 448.141 491.855 447.058 C 497.056 455.866 507.826 458.811 517.338 461.227 C 518.497 461.522 519.663 461.789 520.835 462.03 L 522.137 475.262 C 523.028 483.556 524.608 498.362 520.997 505.653 C 519.557 506.838 518.692 508.031 516.605 507.37 C 504.318 503.476 483.506 479.448 476.65 470.11 C 481.139 436.415 482.353 442.176 470.715 411.071 C 465.97 411.258 461.28 411.676 457.132 408.739 C 450.28 403.887 448.173 392.705 453.964 386.098 C 455.979 383.772 458.924 382.462 462.001 382.526 C 467.24 382.629 470.408 386.481 474.121 390.02 C 489.727 379.94 497.025 364.857 503.614 348.299 z"/>
<path transform="translate(0,0)" fill="rgb(230,160,145)" d="M 522.137 475.262 C 514.979 469.691 486.682 462.642 491.855 447.058 C 497.056 455.866 507.826 458.811 517.338 461.227 C 518.497 461.522 519.663 461.789 520.835 462.03 L 522.137 475.262 z"/>
<path transform="translate(0,0)" fill="rgb(0,0,0)" d="M 533.737 394.419 L 535.901 396.204 C 539.077 404.266 541.474 407.891 539.105 416.222 C 537.162 419.201 534.83 419.483 531.437 420.45 L 529.566 418.49 L 529.718 416.777 C 543.148 413.266 531.565 407.114 533.737 394.419 z"/>
<path transform="translate(0,0)" fill="rgb(0,0,0)" d="M 514.04 426.741 C 517.167 426.984 520.323 429.2 524.486 430.064 C 529.245 431.051 532.57 430.898 537.099 431.747 L 537.987 433.501 C 530.223 436.927 517.629 435.768 514.04 426.741 z"/>
<path transform="translate(0,0)" fill="rgb(0,0,0)" d="M 456.214 389.074 C 467.024 388.462 472.413 398.298 467.804 406.11 C 460.884 398.171 469.177 395.069 456.669 392.106 L 456.214 389.074 z"/>
<path transform="translate(0,0)" fill="rgb(0,0,0)" d="M 510.633 378.072 C 514.056 378.146 519.212 377.956 520.106 381.863 C 516.515 383.471 516.173 382.671 511.595 382.062 C 508.247 383.387 505.866 384.834 502.519 384.008 L 502.009 382.759 C 503.892 379.945 507.366 379.207 510.633 378.072 z"/>
<path transform="translate(0,0)" fill="rgb(0,0,0)" d="M 545.121 380.299 C 548.689 380.045 562.095 380.484 561.089 386.02 L 559.442 386.771 C 551.94 383.283 550.763 385.529 543.661 383.779 L 543.142 382.151 L 545.121 380.299 z"/>
<path transform="translate(0,0)" fill="rgb(0,0,0)" d="M 510.541 390.186 C 514.991 391.067 514.147 390.262 517.15 393.032 C 517.92 396.056 516.752 398.022 515.607 401.038 C 511.358 400.765 512.685 401.425 510.044 399.029 C 509.011 395.372 509.665 393.798 510.541 390.186 z"/>
<path transform="translate(0,0)" fill="rgb(0,0,0)" d="M 548.547 392.727 C 550.842 391.645 553.579 392.629 554.66 394.924 C 555.74 397.218 554.756 399.955 552.461 401.035 C 550.167 402.115 547.432 401.131 546.351 398.837 C 545.271 396.543 546.254 393.808 548.547 392.727 z"/>
<path transform="translate(0,0)" fill="rgb(248,186,160)" d="M 409.519 634.325 C 425.14 634.285 479.719 659.04 497.834 661.649 C 516.3 663.323 531.462 651.132 549.234 663.751 C 555.111 667.925 562.636 672.771 557.237 681.298 C 550.948 681.596 546.053 672.421 533.425 674.403 L 532.338 674.579 C 528.681 675.915 519.296 680.909 516.602 681.344 C 507.323 682.842 491.211 682.188 481.79 681.754 C 456.8 680.605 393.999 679.36 374.192 666.694 C 379.128 646.289 388.269 636.525 409.519 634.325 z"/>
<path transform="translate(0,0)" fill="rgb(57,73,88)" d="M 645.935 687.514 C 667.358 687.115 696.934 687.452 718.994 687.559 C 720.296 687.565 720.493 688.468 721.185 689.59 C 720.88 693.165 721.385 691.838 719.375 694.685 C 713.12 698.45 699.055 696.231 691.363 696.176 L 635.75 696.164 L 590.129 696.252 C 583.336 696.258 565.321 698.034 561.236 692.802 C 561.662 690.249 561.636 690.122 563.229 688.168 C 570.89 686.961 583.804 687.713 592.132 687.708 L 645.935 687.514 z"/>
<path transform="translate(0,0)" fill="rgb(248,186,160)" d="M 793.915 896.769 C 796.626 897.779 800.139 906.578 806.823 909.117 C 814.657 912.093 831.19 909.099 836.502 913.123 L 836.658 915.187 C 831.424 923.22 821.02 925.711 812.315 928.135 C 799.79 931.006 789.751 930.692 777.129 929.649 C 774.825 923.068 772.316 918.243 769.215 912.044 C 780.23 906.896 784.487 904.374 793.915 896.769 z"/>
<path transform="translate(0,0)" fill="rgb(248,186,160)" d="M 593.456 987.511 C 604.601 990.497 611.774 991.547 623.214 992.133 L 622.404 1003.96 C 628.745 1015.3 643.972 1026.05 645.491 1030.46 L 643.801 1032.08 C 643.348 1032.1 642.894 1032.12 642.441 1032.13 C 619.368 1032.79 604.657 1018.31 589.11 1003.66 C 591.101 998.425 592.2 992.965 593.456 987.511 z"/>
<path transform="translate(0,0)" fill="rgb(57,73,88)" d="M 485.57 687.174 C 508.294 687.752 533.541 686.425 555.622 687.605 C 557.575 689.807 557.381 692.343 557.953 695.711 C 549.92 696.622 492.619 697.053 487.277 695.144 C 485.179 691.869 485.839 691.612 485.57 687.174 z"/>
<path transform="translate(0,0)" fill="rgb(191,221,249)" d="M 563.62 636.217 L 568.07 648.758 C 567.239 652.019 566.802 653.171 565.5 656.243 C 564.247 660.284 564.053 663.386 560.044 665.206 L 558.643 663.732 C 557.279 654.841 558.399 647.948 559.263 639.038 L 563.62 636.217 z"/>
<path transform="translate(0,0)" fill="rgb(1,10,23)" d="M 563.62 636.217 L 568.07 648.758 C 567.239 652.019 566.802 653.171 565.5 656.243 C 563.236 652.087 561.797 644.498 559.263 639.038 L 563.62 636.217 z"/>
<path transform="translate(0,0)" fill="rgb(191,221,249)" d="M 426.832 612.85 C 429.121 615.122 430.569 629.484 428.384 632.862 L 425.517 632.691 C 422.369 631.511 421.815 631.903 420.095 629.479 C 420.458 624.466 424.431 618.263 426.832 612.85 z"/>
<path transform="translate(0,0)" fill="rgb(229,209,208)" d="M 532.31 679.032 C 536.012 678.785 544.224 679.118 546.645 682.257 L 545.153 682.648 C 540.248 682.844 535.046 683.276 530.242 682.435 L 529.612 681.293 L 532.31 679.032 z"/>
<path transform="translate(0,0)" fill="rgb(148,188,226)" d="M 221.058 207.409 C 224.62 201.833 226.972 197.564 234.178 196.699 C 245.401 195.352 256.993 195.864 268.312 195.882 L 329.381 196.01 C 336.573 202.291 370.627 236.215 375.123 242.368 C 374.985 246.499 374.919 250.096 375.032 254.225 L 375.367 338.77 C 375.366 349.096 376.002 366.013 374.907 375.53 C 371.892 401.745 330.629 386.487 313.307 390.956 L 312.149 391.106 C 303.042 387.816 259.367 392.408 246.875 390.887 C 238.282 391.734 221.139 388.877 221.143 376.599 C 221.16 320.961 219.291 262.956 221.058 207.409 z"/>
<path transform="translate(0,0)" fill="rgb(57,73,88)" d="M 312.81 380.766 L 311.445 383.184 C 308.912 384.272 291.189 384.378 284.472 383.922 C 269.331 382.893 243.579 386.946 229.848 380.986 C 227.668 380.04 227.256 365.093 227.243 361.24 L 227.189 265.885 C 227.195 255.147 225.256 210.382 231.496 204.103 C 240.44 201.764 310.893 202.829 325.046 202.875 C 325.171 213.794 323.936 223.197 325.829 234.144 C 329.207 253.681 358.232 241.663 367.512 247.337 L 367.919 250.153 C 368.551 255.408 368.317 257.907 367.94 263.241 C 367.987 281.797 370.91 370.644 365.008 381.486 C 359.336 384.62 321.733 384.413 313.369 383.682 L 312.81 380.766 z"/>
<path transform="translate(0,0)" fill="rgb(191,221,249)" d="M 340.571 289.371 C 352.842 292.591 359.422 272.089 367.94 263.241 C 367.987 281.797 370.91 370.644 365.008 381.486 C 359.336 384.62 321.733 384.413 313.369 383.682 L 312.81 380.766 C 313.256 360.948 318.986 340.613 325.248 321.973 L 325.826 321.979 C 331.802 319.211 342.747 324.638 349.192 319.983 C 350.136 317.464 350.145 318.586 349.034 315.922 C 345.972 314.27 339.819 314.882 336.012 314.96 L 328.173 314.83 C 330.507 308.695 333.37 302.748 336.126 296.787 L 345.352 297.262 L 348.753 296.73 C 350.65 294.004 350.321 295.215 350.268 292.166 C 346.924 290.182 343.95 291.13 339.72 290.196 L 340.571 289.371 z"/>
<path transform="translate(0,0)" fill="rgb(254,254,254)" d="M 325.826 321.979 C 329.008 322.112 330.229 321.593 332.388 323.268 C 331.113 328.499 329.592 333.587 327.831 338.674 C 323.09 352.364 323.526 368.786 319.502 382.433 C 316.994 383.164 315.963 383.365 313.369 383.682 L 312.81 380.766 C 313.256 360.948 318.986 340.613 325.248 321.973 L 325.826 321.979 z"/>
<path transform="translate(0,0)" fill="rgb(254,254,254)" d="M 336.126 296.787 L 345.352 297.262 C 341.581 303.281 339.241 310.07 336.012 314.96 L 328.173 314.83 C 330.507 308.695 333.37 302.748 336.126 296.787 z"/>
<path transform="translate(0,0)" fill="rgb(148,188,226)" d="M 336.126 296.787 C 313.812 297.028 291.495 296.725 269.181 296.766 C 262.622 296.778 256.016 296.946 249.482 296.299 C 246.848 294.389 247.441 295.394 246.707 292.612 C 246.923 292.389 247.126 292.152 247.355 291.943 C 251.279 288.362 328.308 290.032 339.72 290.196 C 343.95 291.13 346.924 290.182 350.268 292.166 C 350.321 295.215 350.65 294.004 348.753 296.73 L 345.352 297.262 L 336.126 296.787 z"/>
<path transform="translate(0,0)" fill="rgb(148,188,226)" d="M 325.248 321.973 C 317.042 318.792 254.455 322.983 248.007 320.058 L 247.199 317.54 L 248.325 315.798 C 252.307 313.843 319.621 314.507 328.173 314.83 L 336.012 314.96 C 339.819 314.882 345.972 314.27 349.034 315.922 C 350.145 318.586 350.136 317.464 349.192 319.983 C 342.747 324.638 331.802 319.211 325.826 321.979 L 325.248 321.973 z"/>
<path transform="translate(0,0)" fill="rgb(254,254,254)" d="M 367.919 250.153 C 368.551 255.408 368.317 257.907 367.94 263.241 C 359.422 272.089 352.842 292.591 340.571 289.371 C 347.788 274.819 357.773 262.651 367.919 250.153 z"/>
<path transform="translate(0,0)" fill="rgb(148,188,226)" d="M 246.828 266.052 C 262.976 265.057 284.158 265.805 300.664 265.643 C 312.902 265.523 334.827 265.043 345.898 266.207 C 348.228 268.402 347.504 267.534 347.742 271.77 C 332.859 272.751 311.092 271.985 295.743 272.144 C 283.379 272.273 260.134 272.876 248.782 271.625 C 246.46 269.31 247.171 270.396 246.828 266.052 z"/>
<path transform="translate(0,0)" fill="rgb(148,188,226)" d="M 247.771 339.205 C 265.722 339.028 284.723 338.384 302.716 339.246 C 306.103 339.408 306.884 340.245 307.985 342.952 L 306.8 345.631 C 289.489 345.754 272.005 345.894 254.691 345.747 C 250.603 345.712 249.381 345.518 247.063 342.991 L 247.771 339.205 z"/>
<path transform="translate(0,0)" fill="rgb(148,188,226)" d="M 247.007 241.168 C 256.044 240.511 298.729 240.172 305.745 241.32 C 308.03 243.649 307.311 242.895 307.801 246.902 C 299.565 247.662 255.205 247.678 248.471 246.61 C 246.407 244.268 247.036 245.16 247.007 241.168 z"/>
<path transform="translate(0,0)" fill="rgb(57,73,88)" d="M 332.029 208.392 C 336.447 210.692 358.908 234.286 363.512 239.003 C 330.692 240.171 331.281 241.94 332.029 208.392 z"/>
<path transform="translate(0,0)" fill="rgb(148,188,226)" d="M 1343.12 542.427 C 1373.48 521.177 1407.79 477.33 1446.05 475.85 C 1454.7 475.516 1475.21 482.482 1487.34 483.784 C 1470.13 483.945 1457.57 485.783 1443.48 496.793 C 1422.88 512.876 1402.75 529.952 1382.64 546.602 C 1364.62 546.916 1345.76 546.719 1327.41 546.117 C 1303.7 545.34 1282.35 545.291 1281 575.813 C 1280.22 593.422 1280.96 611.992 1281.09 629.801 C 1259.4 648.267 1232.29 667.577 1213.64 688.291 C 1207.25 695.392 1209.73 745.583 1209.46 757.535 C 1208.41 803.677 1210.93 850.875 1209.83 896.89 L 1209.02 897.184 C 1209.09 894.587 1209.36 893.598 1208.27 891.34 C 1203.05 888.469 1185.87 889.991 1178.81 890.074 C 1178.79 828.005 1178.74 765.838 1178.85 703.775 C 1178.86 697.599 1180.73 681.005 1184.13 676.991 C 1201.98 655.927 1230.22 638.794 1250.1 619.539 C 1250 601.699 1244.05 547.14 1266.94 544.086 C 1291.2 540.85 1318.06 544.845 1343.12 542.427 z"/>
<path transform="translate(0,0)" fill="rgb(57,73,88)" d="M 1463.99 323.279 C 1464.44 319.689 1464.9 309.908 1467.97 307.518 C 1473.04 303.577 1490.14 303.085 1494.7 308.167 C 1496.55 310.233 1497.52 319.113 1497.97 322.583 C 1503.12 324.796 1507.37 326.59 1512.32 329.31 C 1517.93 325.219 1520.81 322.959 1527.15 319.971 C 1540.8 329.264 1551.07 335.815 1538.52 351.631 C 1538.01 352.273 1537.49 352.914 1536.98 353.551 L 1542.55 367.681 C 1548.64 368.437 1553.83 368.034 1558.06 373.398 C 1564.39 381.421 1563.46 392.738 1555.56 399.377 C 1553.15 401.403 1545.93 402.134 1542.63 402.528 C 1540.86 407.381 1539.09 412.606 1536.86 417.236 C 1550.66 434.899 1544.8 435.811 1529.69 449.833 L 1527.14 445.305 C 1519.18 434.344 1510.66 423.923 1502.71 413.023 L 1497.83 408.83 C 1494.64 405.381 1490.99 401.811 1487.68 398.431 C 1477.4 388.918 1465.93 380.962 1456.12 371.753 L 1450.86 369.17 L 1432.1 357.616 C 1429.12 355.836 1426.05 354.303 1422.97 352.709 C 1421.98 347.398 1414.19 339.404 1417.98 334.366 C 1421.01 330.333 1430.39 322.356 1434.63 319.366 C 1440.4 323.143 1443.62 325.429 1448.95 329.862 C 1453.54 327.818 1459.39 325.005 1463.99 323.279 z"/>
<path transform="translate(0,0)" fill="rgb(148,188,226)" d="M 1463.99 323.279 C 1464.44 319.689 1464.9 309.908 1467.97 307.518 C 1473.04 303.577 1490.14 303.085 1494.7 308.167 C 1496.55 310.233 1497.52 319.113 1497.97 322.583 C 1503.12 324.796 1507.37 326.59 1512.32 329.31 C 1517.93 325.219 1520.81 322.959 1527.15 319.971 C 1540.8 329.264 1551.07 335.815 1538.52 351.631 C 1538.01 352.273 1537.49 352.914 1536.98 353.551 L 1542.55 367.681 C 1548.64 368.437 1553.83 368.034 1558.06 373.398 C 1564.39 381.421 1563.46 392.738 1555.56 399.377 C 1553.15 401.403 1545.93 402.134 1542.63 402.528 C 1540.86 407.381 1539.09 412.606 1536.86 417.236 C 1550.66 434.899 1544.8 435.811 1529.69 449.833 L 1527.14 445.305 C 1531.95 440.54 1535.78 436.538 1540.25 431.46 C 1536.98 425.815 1534.3 422.33 1530.39 417.166 C 1533.49 410.989 1535.79 404.608 1538.26 398.154 C 1544.37 397.048 1548.81 396.047 1554.79 394.475 C 1554.9 387.642 1554.75 381.693 1554.46 374.866 C 1534.16 373.144 1537.28 370.213 1530.32 352.652 C 1533.89 348.26 1537.17 343.792 1540.54 339.255 C 1536.66 335.052 1530.65 329.554 1526.42 325.456 C 1522.21 328.633 1517.46 332.734 1513.32 336.126 C 1506.06 332.416 1500.49 330.086 1492.91 327.05 C 1491.18 308.306 1489.78 310.024 1471.47 310.777 C 1470.43 316.112 1470.17 321.553 1469.79 326.977 L 1448.42 335.61 C 1443.55 331.86 1439.59 328.883 1434.43 325.479 L 1421.8 339.417 C 1425.91 346.108 1430.76 349.972 1432.1 357.616 C 1429.12 355.836 1426.05 354.303 1422.97 352.709 C 1421.98 347.398 1414.19 339.404 1417.98 334.366 C 1421.01 330.333 1430.39 322.356 1434.63 319.366 C 1440.4 323.143 1443.62 325.429 1448.95 329.862 C 1453.54 327.818 1459.39 325.005 1463.99 323.279 z"/>
<path transform="translate(0,0)" fill="rgb(57,73,88)" d="M 1456.12 371.753 C 1463.23 357.294 1479.62 352.265 1493.75 359.895 C 1500.61 363.573 1505.71 369.854 1507.89 377.327 C 1509.85 384.119 1508.9 391.799 1506.31 398.292 C 1503.06 403.308 1502.13 404.77 1497.83 408.83 C 1494.64 405.381 1490.99 401.811 1487.68 398.431 C 1477.4 388.918 1465.93 380.962 1456.12 371.753 z"/>
<path transform="translate(0,0)" fill="rgb(42,59,73)" d="M 1487.68 398.431 C 1492.96 398.045 1503.73 399.035 1506.31 398.292 C 1503.06 403.308 1502.13 404.77 1497.83 408.83 C 1494.64 405.381 1490.99 401.811 1487.68 398.431 z"/>
<path transform="translate(0,0)" fill="rgb(148,188,226)" d="M 1450.86 369.17 C 1454.26 361.894 1461.14 355.442 1468.71 352.733 C 1477.49 349.558 1487.17 350.046 1495.58 354.09 C 1503.97 358.287 1510.36 365.626 1513.36 374.509 C 1518.44 389.659 1512.91 401.824 1502.71 413.023 L 1497.83 408.83 C 1502.13 404.77 1503.06 403.308 1506.31 398.292 C 1508.9 391.799 1509.85 384.119 1507.89 377.327 C 1505.71 369.854 1500.61 363.573 1493.75 359.895 C 1479.62 352.265 1463.23 357.294 1456.12 371.753 L 1450.86 369.17 z"/>
<path transform="translate(0,0)" fill="rgb(254,254,254)" d="M 642.473 215.881 C 699.993 144.386 773 102.467 864.9 92.5417 C 949.047 84.3002 1033.09 109.24 1099.12 162.048 C 1114.16 174.202 1136.11 195.164 1147.87 210.818 C 1149.37 214.078 1149.07 217.533 1149.09 221.162 L 1147.48 222.316 C 1143.25 218.796 1137.55 209.721 1133.17 205.039 C 1123.58 194.765 1113.66 184.753 1103.01 175.569 C 1037.73 119.392 952.353 92.2683 866.614 100.463 C 799.973 106.674 735.109 135.22 685.514 180.417 C 669.02 195.448 656.625 213.061 643.36 225.267 C 630.159 217.691 615.638 208.965 601.684 203.159 C 561.421 186.409 513.087 183.28 471.015 194.777 C 430.709 205.792 403.766 225.215 375.032 254.225 C 374.919 250.096 374.985 246.499 375.123 242.368 C 402.557 217.427 413.792 209.572 447.1 194.34 L 448.056 193.837 C 505.104 173.828 560.296 174.257 615.498 200.727 C 624.802 205.201 633.812 210.263 642.473 215.881 z"/>
<path transform="translate(0,0)" fill="rgb(254,254,254)" d="M 1178.81 890.074 C 1185.87 889.991 1203.05 888.469 1208.27 891.34 C 1209.36 893.598 1209.09 894.587 1209.02 897.184 L 1209.83 896.89 C 1209.73 921.279 1209.75 945.668 1209.9 970.056 C 1209.91 974.971 1210.22 999.507 1209.28 1003.02 C 1208.15 1000.75 1208.63 913.076 1208.61 904.232 C 1187.94 906.348 1137.82 905.045 1114.58 905.041 L 933.066 905.077 C 924.102 905.083 876.966 904.342 871.753 906.569 C 857.232 907.159 840.533 906.312 825.874 906.143 C 816.114 906.03 808.176 905.142 801.471 897.991 C 799.817 895.336 799.415 895.011 799.03 892.008 L 800.216 890.538 C 816.257 889.565 834.786 889.977 851.033 889.991 L 930.748 890.016 L 1178.81 890.074 z"/>
<path transform="translate(0,0)" fill="rgb(42,59,73)" d="M 1209.02 897.184 L 1209.83 896.89 C 1209.73 921.279 1209.75 945.668 1209.9 970.056 C 1209.91 974.971 1210.22 999.507 1209.28 1003.02 C 1208.15 1000.75 1208.63 913.076 1208.61 904.232 C 1187.94 906.348 1137.82 905.045 1114.58 905.041 L 933.066 905.077 C 924.102 905.083 876.966 904.342 871.753 906.569 C 857.232 907.159 840.533 906.312 825.874 906.143 C 816.114 906.03 808.176 905.142 801.471 897.991 L 1104.28 897.816 L 1174.24 897.952 C 1181.18 897.97 1203.37 898.47 1209.02 897.184 z"/>
<path transform="translate(0,0)" fill="rgb(254,254,254)" d="M 313.307 390.956 C 314.799 391.104 317.842 391.087 318.092 392.012 C 321.422 404.368 319.744 423.481 321.938 436.413 C 327.68 470.255 338.798 494.964 353.747 524.849 C 297.148 536.912 254.393 558.493 222.054 608.561 C 193.914 652.061 184.266 704.98 195.245 755.612 C 204.755 798.946 231.211 839.87 268.907 863.631 C 302.894 885.053 328.392 889.602 367.515 890.249 C 367.265 894.544 368.039 895.283 365.612 897.675 L 360.843 898.241 C 342.61 896.84 329.984 896.412 311.958 891.505 C 267.678 879.1 230.162 849.572 207.702 809.446 C 185.399 769.38 177.785 722.785 186.173 677.704 C 188.653 664.608 193.503 650.756 197.123 637.736 L 201.427 629.573 L 213.528 607.257 L 216.885 601.198 C 219.177 599.534 238.44 575.658 241.718 571.554 C 243.408 569.557 246.019 567.464 248.039 565.712 C 253.93 560.379 261.94 554.467 268.349 549.682 L 273.109 546.85 C 295.907 532.96 316.128 524.689 342.382 519.895 C 320.664 474.196 309.693 443.022 312.149 391.106 L 313.307 390.956 z"/>
<path transform="translate(0,0)" fill="rgb(254,254,254)" d="M 1204.84 349.374 C 1198.11 332.379 1196.46 309.239 1187.41 291.688 C 1184.38 285.818 1178.56 274.376 1176.81 268.678 C 1178.77 267.375 1181.89 267.784 1184.39 267.817 L 1185.41 268.664 C 1197.04 292.739 1205.21 314.503 1210.94 340.945 C 1286.48 314.871 1350.43 319.15 1422.97 352.709 C 1426.05 354.303 1429.12 355.836 1432.1 357.616 L 1450.86 369.17 L 1456.12 371.753 C 1465.93 380.962 1477.4 388.918 1487.68 398.431 C 1490.99 401.811 1494.64 405.381 1497.83 408.83 L 1502.71 413.023 C 1510.66 423.923 1519.18 434.344 1527.14 445.305 L 1529.69 449.833 C 1541.28 469.29 1560.73 507.823 1562.07 530.715 C 1558.31 527.927 1555.93 525.977 1552.47 522.828 L 1552.33 521.949 C 1551.32 516.146 1547.14 504.964 1544.95 498.97 C 1526.71 450.175 1493.93 408.153 1451.04 378.575 C 1395.75 340.754 1328.13 325.402 1261.92 335.639 C 1240.27 339.102 1224 345.891 1204.84 349.374 z"/>
<path transform="translate(0,0)" fill="rgb(148,188,226)" d="M 950.088 293.118 C 962.442 292.228 975.847 292.936 988.315 292.558 C 995.971 292.325 1011.69 291.006 1015.91 298.418 C 1017.19 308.517 1006.77 308.167 1000.09 308.175 C 983.754 308.195 967.356 307.105 951.052 308.207 C 950.338 316.786 948.92 382.783 952.29 387.016 C 961.412 389.834 1020.56 390.124 1029.33 387.417 C 1032.53 383.356 1031.57 368.29 1031.54 362.378 C 1031.53 355.746 1030.73 346.939 1033.89 341.367 C 1051.87 324.838 1046.09 383.516 1045.91 389.714 C 1043.4 393.809 1040.88 398.054 1036.69 400.631 C 1027.97 405.991 962.554 405.275 951.123 402.341 C 946.719 401.21 941.294 399.286 938.989 395.089 C 934.403 386.739 933.857 315.899 937.039 305.42 C 938.91 299.257 944.779 295.968 950.088 293.118 z"/>
<path transform="translate(0,0)" fill="rgb(191,221,249)" d="M 957.4 297.364 C 971.663 296.919 993.285 296.669 1007.96 297.948 C 1009.53 298.085 1009.99 299.537 1010.65 300.777 C 1004.64 307.983 947.547 295.154 946.601 310.749 C 945.314 331.961 945.768 356.425 946.026 377.959 C 946.921 386.071 946.595 393.448 957.208 393.169 C 978.891 392.6 1000.87 393.586 1022.54 393.197 C 1030.74 393.05 1035.62 389.676 1036.01 381.25 C 1036.04 369.782 1035.8 357.452 1036.53 346.037 C 1036.59 344.964 1037.4 344.748 1038.57 343.854 L 1040.06 344.758 C 1043.32 351.867 1041.84 377.815 1041.69 386.821 C 1041.46 387.266 1041.23 387.707 1040.99 388.145 C 1029.5 408.854 979.109 395.278 957.5 399.12 C 946.914 399.732 940.429 391.587 940.596 381.182 C 940.989 356.61 936.258 325.664 944.12 302.595 C 945.325 299.06 954.213 297.736 957.4 297.364 z"/>
<path transform="translate(0,0)" fill="rgb(148,188,226)" d="M 1035.51 297.874 C 1041.47 297.257 1044.01 297.523 1046.3 303.134 C 1046.23 311.001 1035.11 323.449 1029.86 328.67 C 1023.54 334.948 996.314 371.075 989.031 372.193 C 981.434 370.379 976.688 363.371 971.497 357.415 C 965.909 351.93 956.491 343.435 963.149 335.251 C 973.395 331.677 982.363 344.716 988.024 351.508 C 1003.92 335.783 1019.47 313.263 1035.51 297.874 z"/>
<path transform="translate(0,0)" fill="rgb(191,221,249)" d="M 1038.7 301.453 C 1041.67 303.385 1041.2 302.433 1041.85 305.117 C 1038.47 311.966 995.339 361.548 988.851 367.43 C 982.738 362.829 975.423 354.755 970.306 349.099 C 967.522 346.046 966.068 345.16 965.532 341.618 L 967.23 340.113 C 972.741 340.256 984.67 354.043 989.144 358.567 C 999.316 345.821 1027.75 312.045 1038.7 301.453 z"/>
<path transform="translate(0,0)" fill="rgb(148,188,226)" d="M 1147.87 210.818 C 1147.94 210.658 1148.01 210.501 1148.08 210.339 C 1149.56 206.55 1149 201.522 1149.01 197.499 C 1149.04 182.849 1145.74 148.022 1149.64 135.771 C 1151.03 131.401 1154.53 126.899 1158.89 125.17 C 1165.44 122.572 1306.94 123.236 1324.17 123.939 C 1326.95 124.052 1330.44 124.056 1332.95 125.378 C 1337.22 127.626 1339.45 131.167 1340.62 135.739 C 1344.31 150.059 1341.78 200.962 1341.73 219.149 C 1341.7 228.865 1342.8 238.87 1342.16 248.541 C 1341.88 252.618 1341.1 256.908 1339 260.467 C 1336.69 264.368 1333.34 266.249 1329.05 267.205 C 1317.13 269.857 1301.95 268.055 1289.61 268.019 L 1212.1 267.817 C 1207.2 267.812 1189.06 267.481 1185.41 268.664 L 1184.39 267.817 C 1175.89 263.059 1150.2 275.455 1148.93 253.763 C 1148.28 242.751 1148.86 232.186 1149.09 221.162 C 1149.07 217.533 1149.37 214.078 1147.87 210.818 z"/>
<path transform="translate(0,0)" fill="rgb(57,73,88)" d="M 1155.68 221.94 C 1155.42 209.126 1153.56 140.569 1157.68 133.444 C 1161.39 131.674 1166.93 130.469 1171.01 130.427 C 1219.97 129.925 1268.98 130.257 1317.94 130.271 C 1322.14 130.272 1330.36 131.49 1333.73 134.036 C 1335.89 141.474 1335.07 223.979 1334.81 237.085 C 1328.6 230.775 1299.9 198.882 1291.27 197.473 C 1287.03 196.781 1268.25 218.034 1262.88 222.949 C 1253.91 213.841 1224.96 183.128 1216.08 177.338 C 1207.33 182.858 1170.28 221.108 1162.47 230.427 C 1159.8 233.239 1160.48 233.33 1157.16 234.306 L 1155.82 232.838 C 1154.91 228.348 1155.24 226.533 1155.68 221.94 z"/>
<path transform="translate(0,0)" fill="rgb(254,254,254)" d="M 1155.68 221.94 C 1157.66 224.457 1160.4 228.145 1162.47 230.427 C 1159.8 233.239 1160.48 233.33 1157.16 234.306 L 1155.82 232.838 C 1154.91 228.348 1155.24 226.533 1155.68 221.94 z"/>
<path transform="translate(0,0)" fill="rgb(148,188,226)" d="M 1266.68 148.418 C 1272.99 147.423 1279.35 149.917 1283.3 154.94 C 1287.26 159.963 1288.19 166.73 1285.74 172.634 C 1283.29 178.538 1277.84 182.657 1271.49 183.405 C 1261.94 184.531 1253.24 177.803 1251.93 168.272 C 1250.62 158.742 1257.17 149.915 1266.68 148.418 z"/>
<path transform="translate(0,0)" fill="rgb(57,73,88)" d="M 1265.34 155.717 C 1271.02 153.415 1277.49 156.191 1279.73 161.895 C 1281.98 167.598 1279.15 174.04 1273.42 176.233 C 1267.77 178.397 1261.43 175.606 1259.22 169.979 C 1257 164.351 1259.73 157.987 1265.34 155.717 z"/>
<path transform="translate(0,0)" fill="rgb(57,73,88)" d="M 1166.29 236.021 C 1179.43 219.737 1203.63 200.122 1215.88 184.522 C 1228.8 197.446 1250.01 220.45 1263.19 231.332 C 1274.9 222.274 1281.67 212.235 1291.48 203.036 C 1299.62 210.548 1333.31 241.191 1335.16 252.606 C 1337.49 267.08 1289.08 259.167 1281.13 261.129 C 1247.92 261.714 1214.58 260.363 1181.52 261.07 L 1172.12 261.387 L 1171.42 261.387 C 1166.59 261.378 1160.83 261.85 1157.73 257.685 C 1153.15 251.541 1156.75 244.947 1161.38 240.75 L 1166.29 236.021 z"/>
<path transform="translate(0,0)" fill="rgb(254,254,254)" d="M 1161.38 240.75 L 1166.29 236.021 C 1171.41 243.764 1177.35 252.75 1181.52 261.07 L 1172.12 261.387 L 1171.42 261.387 C 1166.59 261.378 1160.83 261.85 1157.73 257.685 C 1153.15 251.541 1156.75 244.947 1161.38 240.75 z"/>
<path transform="translate(0,0)" fill="rgb(191,221,249)" d="M 1161.38 240.75 C 1164.66 248.142 1169.2 254.881 1172.12 261.387 L 1171.42 261.387 C 1166.59 261.378 1160.83 261.85 1157.73 257.685 C 1153.15 251.541 1156.75 244.947 1161.38 240.75 z"/>
<path transform="translate(0,0)" fill="rgb(99,131,158)" d="M 1755.09 872.06 C 1762.97 835.866 1775.37 786.377 1808.18 764.488 C 1817.23 758.443 1828.69 755.775 1839.46 758.339 C 1850.28 760.959 1859.62 767.778 1865.41 777.29 C 1878.92 799.726 1872.56 846.105 1859.63 869.96 C 1855.27 878.013 1834.55 890.496 1829.45 899.803 C 1823.01 906.897 1806 933.971 1802.68 936.974 C 1798.52 931.162 1795.34 928.205 1790.04 923.691 L 1784.46 920.519 C 1778.52 917.627 1772.16 915.681 1765.61 914.752 C 1763.92 907.406 1753.72 875.7 1755.09 872.06 z"/>
<path transform="translate(0,0)" fill="rgb(148,188,226)" d="M 1784.46 920.519 L 1784.86 919.561 C 1789.53 908.07 1793.42 887.059 1796.84 874.805 C 1800.17 862.892 1818.58 806.622 1826.67 802.012 L 1828.68 802.78 C 1829.67 805.397 1828.43 811.586 1826.87 813.066 C 1815.36 823.975 1793.37 919.96 1790.04 923.691 L 1784.46 920.519 z"/>
<path transform="translate(0,0)" fill="rgb(57,73,88)" d="M 196.409 509.986 C 196.698 507.119 197.509 497.644 199.194 495.826 C 204.473 490.18 220.725 490.696 226.633 495.037 C 228.988 496.767 229.975 507.205 230.434 510.334 C 235.771 512.161 240.284 513.899 245.469 516.014 C 251.119 511.364 253.279 509.497 259.888 506.067 C 264.646 509.176 275.106 517.948 276.402 523.612 C 277.742 529.469 273.394 534.418 270.524 539.607 C 270.57 543.937 270.621 542.756 273.109 546.85 L 268.349 549.682 C 261.94 554.467 253.93 560.379 248.039 565.712 C 246.019 567.464 243.408 569.557 241.718 571.554 C 238.44 575.658 219.177 599.534 216.885 601.198 L 213.528 607.257 L 201.427 629.573 L 197.123 637.736 C 194.717 630.528 187.985 630.045 181.313 628.109 C 176.596 632.225 172.876 636.175 166.568 636.593 C 160.355 633.97 151.473 624.95 148.473 618.896 C 148.257 613.45 153.516 608.172 156.984 604.009 L 151.497 589.093 C 138.212 586.994 132.657 588.692 132.839 571.902 C 133.009 556.111 137.072 556.024 151.081 554.507 C 152.87 549.992 155.441 544.717 157.483 540.225 C 155.6 538.019 153.644 535.711 151.898 533.395 C 143.184 521.834 159.212 511.607 167.592 506.276 C 173.971 509.991 175.766 511.507 181.251 516.32 L 196.409 509.986 z"/>
<path transform="translate(0,0)" fill="rgb(57,73,88)" d="M 216.885 601.198 C 192.419 598.866 174.64 579.331 189.836 556.636 C 194.415 549.682 201.676 544.941 209.885 543.546 C 229 540.215 239.113 554.417 241.718 571.554 C 238.44 575.658 219.177 599.534 216.885 601.198 z"/>
<path transform="translate(0,0)" fill="rgb(148,188,226)" d="M 196.409 509.986 C 196.698 507.119 197.509 497.644 199.194 495.826 C 204.473 490.18 220.725 490.696 226.633 495.037 C 228.988 496.767 229.975 507.205 230.434 510.334 C 235.771 512.161 240.284 513.899 245.469 516.014 C 251.119 511.364 253.279 509.497 259.888 506.067 C 264.646 509.176 275.106 517.948 276.402 523.612 C 277.742 529.469 273.394 534.418 270.524 539.607 C 270.57 543.937 270.621 542.756 273.109 546.85 L 268.349 549.682 L 263.046 539.833 C 265.804 535.527 269.912 529.537 272.312 525.209 C 268.043 520.953 263.469 516.195 259.057 512.152 C 254.938 515.186 249.457 519.482 245.304 522.188 C 238.166 518.94 232.934 516.827 225.536 514.216 C 224.527 508.845 223.682 503.444 223.002 498.021 C 216.538 498.012 209.911 497.921 203.462 498.078 C 202.745 503.245 202.085 508.788 201.232 513.899 C 193.949 516.656 187.983 518.826 181.061 522.395 C 176.022 518.8 172.774 516.419 168.1 512.249 C 162.616 516.915 158.409 520.662 153.974 526.508 L 163.171 539.073 C 160.834 545.341 158.33 552.578 155.804 558.684 C 149.977 559.969 145.135 560.913 139.211 561.851 C 139.148 568.216 138.909 575.73 139.137 582.009 C 144.151 582.67 151.215 583.38 155.939 584.668 C 158.188 590.758 160.754 598.255 163.345 604.043 C 160.107 608.751 156.908 613.485 153.749 618.245 C 158.068 622.59 162.96 627.748 167.375 631.873 C 171.445 628.887 177.055 624.507 181.234 621.978 C 185.63 623.587 197.812 627.733 201.427 629.573 L 197.123 637.736 C 194.717 630.528 187.985 630.045 181.313 628.109 C 176.596 632.225 172.876 636.175 166.568 636.593 C 160.355 633.97 151.473 624.95 148.473 618.896 C 148.257 613.45 153.516 608.172 156.984 604.009 L 151.497 589.093 C 138.212 586.994 132.657 588.692 132.839 571.902 C 133.009 556.111 137.072 556.024 151.081 554.507 C 152.87 549.992 155.441 544.717 157.483 540.225 C 155.6 538.019 153.644 535.711 151.898 533.395 C 143.184 521.834 159.212 511.607 167.592 506.276 C 173.971 509.991 175.766 511.507 181.251 516.32 L 196.409 509.986 z"/>
<path transform="translate(0,0)" fill="rgb(148,188,226)" d="M 213.528 607.257 L 212.543 607.121 C 191.636 604.163 175.881 588.677 179.435 566.648 C 180.974 557.265 186.179 548.879 193.904 543.334 C 210.176 531.623 234.247 536.876 243.304 555.596 C 245.003 559.109 245.619 562.576 248.039 565.712 C 246.019 567.464 243.408 569.557 241.718 571.554 C 239.113 554.417 229 540.215 209.885 543.546 C 201.676 544.941 194.415 549.682 189.836 556.636 C 174.64 579.331 192.419 598.866 216.885 601.198 L 213.528 607.257 z"/>
<path transform="translate(0,0)" fill="rgb(99,131,158)" d="M 1806.59 943.546 C 1820.84 912.365 1853.44 874.9 1886 862.01 C 1924.29 846.852 1955.47 879.531 1936.14 917.009 C 1923.38 941.748 1901.37 960.646 1878.58 975.949 C 1878.34 976.101 1877.81 976.151 1877.53 976.196 C 1873.32 960.496 1869 953.452 1854.8 944.47 L 1850.53 943.379 L 1848.32 941.935 C 1840.22 940.784 1837.02 940.258 1828.63 941.381 C 1822.26 942.234 1812.44 949.381 1809.56 949.009 C 1808.49 947.143 1807.54 945.476 1806.59 943.546 z"/>
<path transform="translate(0,0)" fill="rgb(148,188,226)" d="M 1848.32 941.935 C 1854.83 931.028 1891.69 897.515 1903.12 892.162 C 1906.46 892.267 1905.35 891.747 1907.51 893.775 C 1907.36 894.509 1907.2 895.243 1907.05 895.977 C 1889.11 911.59 1869.86 925.756 1854.8 944.47 L 1850.53 943.379 L 1848.32 941.935 z"/>
<path transform="translate(0,0)" fill="rgb(148,188,226)" d="M 1602.56 388.98 C 1623.98 388.086 1613.8 395.825 1623.78 400.546 C 1627.91 400.407 1629.84 398.671 1633.28 396.362 C 1637.62 400.03 1640.5 403.188 1644.33 407.31 C 1642.23 410.266 1640.75 411.941 1639.95 415.486 C 1642.28 424.217 1652.09 421.006 1651.78 431.096 C 1651.47 441.113 1647 437.618 1641.07 442.56 C 1636.94 449.648 1641.03 449.026 1642.04 455.501 C 1640.82 459.367 1636.95 462.481 1633.94 465.377 C 1622.3 458.366 1620.64 460.617 1616.25 472.863 C 1595.5 475.301 1605.27 467.367 1595.85 461.502 C 1591.75 461.371 1589.75 463.189 1586.3 465.469 C 1582.55 462.389 1578.94 459.09 1575.32 455.852 C 1577.01 452.305 1578.6 449.687 1578.72 445.76 C 1576.24 436.036 1567.51 444.539 1567.99 424.353 C 1568.67 424.123 1569.35 423.888 1570.02 423.648 C 1575.27 421.793 1576.41 421.787 1578.61 417.176 C 1578.65 413.342 1576.66 410.448 1574.83 407.032 C 1578.07 403.028 1581.5 399.937 1585.22 396.417 L 1586.09 397.023 C 1590.22 399.878 1591.86 401.066 1596.65 400.163 C 1599.02 398.266 1599.43 397.828 1600.43 395.014 L 1602.56 388.98 z"/>
<path transform="translate(0,0)" fill="rgb(57,73,88)" d="M 1604.09 392.842 C 1612.88 392.466 1611.92 392.506 1616.62 400.312 C 1618.73 403.808 1622.25 404.748 1625.98 406.333 L 1632.71 401.16 C 1634.69 402.706 1636.16 404.088 1637.98 405.784 C 1639.66 411.54 1632.78 414.163 1637.13 421.65 C 1640.87 428.103 1642.53 423.042 1646.44 427.749 C 1646.8 441.222 1628.65 435.977 1638.37 453.12 C 1637.93 456.423 1638.32 455.189 1635.42 458.211 C 1628.23 461.268 1615.96 449.385 1614.16 468.65 C 1611.98 469.548 1610.03 469.426 1607.66 469.525 C 1601.29 465.439 1605.96 453.22 1586.64 458.901 C 1578.2 461.385 1584.78 443.026 1579.39 436.814 C 1576.45 436.225 1575.77 436.139 1573.15 434.724 C 1571.51 431.922 1571.82 430.641 1572 427.475 C 1573.77 425.457 1574.94 426.072 1578.41 425.804 C 1580.68 423.848 1583.19 417.431 1584.6 414.35 L 1580.66 410.133 C 1579.94 406.448 1579.81 407.97 1581.26 404.374 C 1586.4 400.958 1587.99 403.105 1592.31 405.906 C 1595.98 404.618 1598.86 403.719 1602.28 401.827 C 1604.72 397.839 1603.93 398.171 1604.09 392.842 z"/>
<path transform="translate(0,0)" fill="rgb(148,188,226)" d="M 1607.77 412.834 C 1617.92 411.784 1626.99 419.173 1628.02 429.324 C 1629.04 439.474 1621.63 448.528 1611.48 449.528 C 1601.36 450.524 1592.35 443.144 1591.32 433.029 C 1590.3 422.914 1597.66 413.88 1607.77 412.834 z"/>
<path transform="translate(0,0)" fill="rgb(57,73,88)" d="M 1605.11 417.659 C 1612.38 415.35 1620.17 419.244 1622.68 426.446 C 1625.19 433.647 1621.52 441.543 1614.4 444.261 C 1609.6 446.088 1604.19 445.167 1600.28 441.854 C 1596.36 438.542 1594.55 433.363 1595.55 428.332 C 1596.56 423.301 1600.22 419.213 1605.11 417.659 z"/>
<path transform="translate(0,0)" fill="rgb(42,59,73)" d="M 447.1 194.34 C 443.456 193.173 430.595 193.002 430.064 192.164 C 433.675 190.145 445.696 189.286 448.056 193.837 L 447.1 194.34 z"/>
</svg>